<?xml version="1.0" encoding="utf-8"?>
<!-- Generator: Adobe Illustrator 16.0.0, SVG Export Plug-In . SVG Version: 6.00 Build 0)  -->
<!DOCTYPE svg PUBLIC "-//W3C//DTD SVG 1.1//EN" "http://www.w3.org/Graphics/SVG/1.1/DTD/svg11.dtd">
<svg version="1.1" id="Layer_1" xmlns="http://www.w3.org/2000/svg" xmlns:xlink="http://www.w3.org/1999/xlink" x="0px" y="0px"
	 width="512px" height="512px" viewBox="0 0 512 512" enable-background="new 0 0 512 512" xml:space="preserve">
<g>
	<path fill="#FCB740" d="M502.385,483.478v30.858H12.05v-30.858c0-58.745,47.59-111.142,106.334-111.142l67.106-6.154
		c13.121-2.127,23.868-11.587,27.642-24.33l6.203-21.006h75.766l6.203,21.006c3.774,12.743,14.521,22.203,27.642,24.33l67.106,6.154
		C454.794,372.336,502.385,424.732,502.385,483.478L502.385,483.478z M502.385,483.478"/>
	<path fill="#FC8800" d="M396.052,372.336l-67.106-6.154c-13.12-2.127-23.867-11.587-27.642-24.33l-6.203-21.006h-37.883v193.49
		h245.167v-30.858C502.385,424.732,454.794,372.336,396.052,372.336L396.052,372.336z M396.052,372.336"/>
	<path fill="#FFFFED" d="M187.857,365.644l41.338,51.396l28.022-29.243l-42.207-49.512l-0.721-0.369l-1.176,3.967
		C209.566,353.758,199.926,362.828,187.857,365.644L187.857,365.644z M187.857,365.644"/>
	<path fill="#FFE668" d="M185.109,437.471l72.108,76.313l-14.665-80.12l-49.205-61.165l-5.509-6.855
		c-0.782,0.188-1.547,0.433-2.348,0.558l-19.61,1.79v49.035l27.484-6.815L185.109,437.471z M185.109,437.471"/>
	<path fill="#AF4B00" d="M348.581,388.799h85.903v-34.723l-85.903-1.133V388.799z M348.581,388.799"/>
	<path fill="#FFF0C3" d="M326.578,365.644l-41.338,51.396l-28.022-29.243l42.207-49.512l0.721-0.369l1.176,3.967
		C304.872,353.758,314.51,362.828,326.578,365.644L326.578,365.644z M326.578,365.644"/>
	<path fill="#FFCF00" d="M329.326,437.471l-72.108,76.313l14.666-80.12l49.205-61.165l5.509-6.855
		c0.782,0.188,1.546,0.433,2.348,0.558l19.609,1.79v49.035l-27.485-6.815L329.326,437.471z M329.326,437.471"/>
	<path fill="#FFC373" d="M215.011,338.277l42.207,49.519l42.928-49.887L215.011,338.277z M215.011,338.277"/>
	<path fill="#FFDAA8" d="M257.218,346.097c-69.692,0-126.189-56.498-126.189-126.19v-60.221l252.379-1.002v61.223
		C383.407,289.599,326.91,346.097,257.218,346.097L257.218,346.097z M257.218,346.097"/>
	<path fill="#FCB740" d="M415.475,463.86v50.476h-16.826V463.86C398.648,452.643,415.475,452.643,415.475,463.86L415.475,463.86z
		 M415.475,463.86"/>
	<path fill="#FC8800" d="M115.787,463.86v50.476H98.96V463.86C98.96,452.643,115.787,452.643,115.787,463.86L115.787,463.86z
		 M115.787,463.86"/>
	<g>
		<defs>
			<rect id="SVGID_1_" x="2.436" y="14.435" width="509.564" height="509.565"/>
		</defs>
		<clipPath id="SVGID_2_">
			<use xlink:href="#SVGID_1_"  overflow="visible"/>
		</clipPath>
		<path clip-path="url(#SVGID_2_)" fill="#D96200" d="M165.855,388.799H79.952v-34.723l85.904-1.133V388.799z M165.855,388.799"/>
		<path clip-path="url(#SVGID_2_)" fill="#D96200" d="M285.267,41.476c-28.049,28.361-28.049,28.361-56.097,0
			c-75.208-76.077-84.708,122.02-84.708,122.02h225.513C369.974,163.496,360.472-34.601,285.267,41.476L285.267,41.476z
			 M285.267,41.476"/>
	</g>
	<path fill="#FFDAA8" d="M103.55,212.056c0,15.174,12.305,27.479,27.478,27.479v-54.957c-7.286,0-14.278,2.891-19.429,8.049
		C106.448,197.779,103.55,204.764,103.55,212.056L103.55,212.056z M103.55,212.056"/>
	<path fill="#FFC373" d="M410.886,212.056c0-15.178-12.306-27.478-27.479-27.478v54.957c7.286,0,14.277-2.898,19.429-8.05
		C407.988,226.333,410.886,219.343,410.886,212.056L410.886,212.056z M410.886,212.056"/>
	<path fill="#D96200" d="M256.21,184.579c-70.819,0-133.938-12.018-164.729-31.348c-7.875-4.945-10.246-15.328-5.301-23.197
		c4.946-7.869,15.329-10.248,23.196-5.302c20.762,13.039,74.212,26.196,146.833,26.196c74.868,0,128.449-13.653,148.328-27.179
		c7.681-5.139,18.072-3.124,23.274,4.519c5.2,7.637,3.259,18.046-4.34,23.303C393.533,171.928,329.445,184.579,256.21,184.579
		L256.21,184.579z M256.21,184.579"/>
	<path fill="#4C4C4C" d="M131.002,169.6v69.936l25.376-19.629v-15.011c-0.005-10.515,4.87-20.429,13.203-26.851
		C156.567,175.984,143.684,173.161,131.002,169.6L131.002,169.6z M131.002,169.6"/>
	<path fill="#444444" d="M353.75,176.127c2.816,5.104,4.288,10.829,4.281,16.651v27.128l25.383,19.629v-70.5
		C374.324,171.721,364.417,174.101,353.75,176.127L353.75,176.127z M353.75,176.127"/>
	<path fill="#FF9F60" d="M244.379,260.849l8.031,5.609c9.047,5.664,18.052-7.25,9.615-13.783l-3.225-2.261l6.541-25.182
		c2.822-10.86-13.463-15.091-16.288-4.237l-7.985,30.846C240.18,255.241,241.507,258.834,244.379,260.849L244.379,260.849z
		 M244.379,260.849"/>
	<path fill="#FF9F60" d="M279.714,280.704c-14.814,3.85-30.376,3.824-45.187-0.062c-10.765-3.143-15.479,13.006-4.714,16.148
		c9.384,2.483,19.042,3.737,28.746,3.724c8.888,0.081,17.739-1.188,26.237-3.779c4.508-1.339,7.042-6.122,5.622-10.604
		c-1.421-4.488-6.24-6.937-10.704-5.434V280.704z M279.714,280.704"/>
	<path fill="#FF9F60" d="M214.542,203.482c-5.027,0-9.553,3.022-11.474,7.662c-1.921,4.637-0.857,9.976,2.692,13.532
		c3.549,3.548,8.89,4.613,13.527,2.692c4.645-1.915,7.667-6.448,7.667-11.466C226.947,209.046,221.396,203.487,214.542,203.482
		L214.542,203.482z M214.542,203.482"/>
	<path fill="#FF9F60" d="M299.896,203.482c-5.023,0-9.548,3.022-11.47,7.662c-1.921,4.637-0.862,9.976,2.686,13.532
		c3.556,3.548,8.895,4.613,13.534,2.692c4.637-1.915,7.665-6.448,7.665-11.466C312.308,209.046,306.756,203.487,299.896,203.482
		L299.896,203.482z M299.896,203.482"/>
	<g>
		<defs>
			<rect id="SVGID_3_" x="2.436" y="14.435" width="509.564" height="509.565"/>
		</defs>
		<clipPath id="SVGID_4_">
			<use xlink:href="#SVGID_3_"  overflow="visible"/>
		</clipPath>
		<path clip-path="url(#SVGID_4_)" fill="#FCB740" d="M257.218,69.63l11.116,22.521l24.851,3.613L275.2,113.29l4.245,24.756
			l-22.228-11.687l-22.227,11.687l4.244-24.756l-17.983-17.526l24.848-3.613L257.218,69.63z M257.218,69.63"/>
		<path clip-path="url(#SVGID_4_)" fill="#AF4B00" d="M285.267,41.476c-14.021,14.184-21.032,21.275-28.049,21.275v100.744h112.756
			C369.974,163.496,360.472-34.601,285.267,41.476L285.267,41.476z M285.267,41.476"/>
	</g>
	<path fill="#AF4B00" d="M404.545,123.75c-19.798,13.463-72.991,27.041-147.327,27.165v33.65
		c72.816-0.118,136.455-12.731,166.255-33c7.523-5.282,9.414-15.629,4.239-23.235C422.54,120.725,412.226,118.687,404.545,123.75
		L404.545,123.75z M404.545,123.75"/>
	<path fill="#FC8800" d="M268.334,92.151L257.218,69.63v56.729l22.228,11.687L275.2,113.29l17.984-17.526L268.334,92.151z
		 M268.334,92.151"/>
	<g>
		<defs>
			<rect id="SVGID_5_" x="2.436" y="14.435" width="509.564" height="509.565"/>
		</defs>
		<clipPath id="SVGID_6_">
			<use xlink:href="#SVGID_5_"  overflow="visible"/>
		</clipPath>
		<path clip-path="url(#SVGID_6_)" fill="#FFFFED" d="M257.218,387.796l-28.042,29.243l13.376,16.625l14.665,80.12l14.666-80.12
			l13.376-16.625L257.218,387.796z M257.218,387.796"/>
		<path clip-path="url(#SVGID_6_)" fill="#2D2A2B" d="M442.897,374.789v-20.72c0-4.6-3.694-8.349-8.295-8.417l-85.903-1.129
			c-2.241,0.007-4.395,0.865-6.017,2.406c-1.601,1.583-2.51,3.735-2.51,5.99v5.857l-10.139-0.926
			c-0.327-0.057-0.64-0.164-0.964-0.238c-0.183-0.057-0.364-0.094-0.546-0.138c-7.705-1.827-14.17-7.029-17.621-14.159
			c6.442-2.785,12.658-6.07,18.585-9.833c9.201-6.085,0.356-19.954-9.04-14.185c-36.271,23.065-82.227,24.537-119.909,3.851
			c-37.675-20.687-61.091-60.261-61.098-103.243v-39.359c4.594,1.126,9.352,2.184,14.27,3.174
			c-3.742,6.428-5.719,13.74-5.719,21.181v15.009c0,11.217,16.825,11.217,16.825,0v-15.016c-0.013-6.722,2.647-13.181,7.398-17.939
			c7.217,1.103,14.677,2.066,22.383,2.887c4.677,0.587,8.919-2.78,9.414-7.468c0.494-4.682-2.954-8.865-7.649-9.266
			c-43.833-4.612-80.433-14.458-100.407-27.001c-3.987-2.448-5.215-7.688-2.724-11.65c2.486-3.961,7.738-5.133,11.674-2.604
			c20.188,12.678,71.934,27.486,151.303,27.486c81.91,0,133.644-15.43,153.068-28.637c3.842-2.754,9.201-1.803,11.86,2.103
			c2.661,3.911,1.577,9.239-2.396,11.805c-11.36,7.16-23.718,12.6-36.674,16.142c-0.69,0.108-1.371,0.301-2.018,0.577
			c-8.255,2.404-17.211,4.563-26.847,6.429c-0.682,0.03-1.351,0.156-2.008,0.356c-31.354,5.558-63.144,8.25-94.986,8.05
			c-11.216,0-11.216,16.825,0,16.825c30.934,0.144,61.83-2.341,92.345-7.417c0.684,2.341,1.038,4.77,1.045,7.211v27.126
			c0,2.605,1.209,5.065,3.268,6.655l20,15.473c-2.204,11.63-6.159,22.854-11.725,33.301c-5.282,9.896,9.552,17.827,14.841,7.938
			c5.983-11.261,10.327-23.311,12.907-35.792c16.938-2.592,29.675-16.814,30.389-33.938c0.713-17.121-10.792-32.355-27.46-36.349
			v-2.028c12.838-3.843,25.08-9.446,36.381-16.65c5.532-3.763,9.344-9.571,10.596-16.148c1.253-6.573-0.155-13.377-3.925-18.917
			c-3.761-5.534-9.568-9.345-16.149-10.596c-6.573-1.252-13.375,0.162-18.915,3.923c-15.518,10.579-56.172,21.783-112.825,24.869
			c0.775-1.559,1.039-3.318,0.757-5.039l-3.499-20.387l14.821-14.422c4.997-4.863,2.236-13.345-4.663-14.34l-20.475-2.979
			l-7.661-15.523c6.905-3.337,14.036-10.466,24.995-21.546c11.785-11.917,21.77-16.718,29.688-14.257
			c13.978,4.35,26.439,31.728,34.125,75.143c0.815,4.576,5.183,7.625,9.758,6.811c4.576-0.814,7.625-5.182,6.813-9.759
			c-9.252-51.996-24.633-81.69-45.708-88.258c-14.396-4.475-30.088,1.741-46.632,18.498c-10.392,10.458-18.584,18.74-22.083,18.74
			c-3.5,0-11.692-8.287-22.065-18.771c-16.962-17.157-32.998-23.272-47.651-18.164c-29.051,10.121-42.208,63.814-48.172,110.747
			c-8.901-2.43-17.465-5.966-25.477-10.535c-5.671-3.588-12.531-4.771-19.072-3.286c-6.547,1.484-12.23,5.507-15.798,11.19
			c-3.562,5.678-4.727,12.551-3.216,19.085c1.5,6.535,5.551,12.207,11.239,15.754c11.174,6.642,23.135,11.856,35.611,15.511v1.333
			c-16.651,3.994-28.147,19.198-27.453,36.304c0.688,17.107,13.389,31.335,30.301,33.971c9.026,42.677,38.108,78.375,78.08,95.837
			c-3.443,7.122-9.902,12.325-17.6,14.165c-0.196,0.044-0.385,0.081-0.577,0.138c-0.32,0.07-0.626,0.182-0.958,0.238l-10.147,0.926
			v-5.834c0-2.247-0.9-4.406-2.502-5.983c-1.615-1.554-3.776-2.41-6.016-2.403l-85.911,1.096c-4.606,0.062-8.305,3.811-8.305,8.413
			v34.727c0,4.649,3.769,8.412,8.413,8.412h77.497v19.835c0,4.656,3.789,8.431,8.445,8.413c0.682,0,1.365-0.081,2.022-0.251
			l27.491-6.811c4.513-1.119,7.268-5.683,6.148-10.195c-1.121-4.514-5.684-7.267-10.197-6.146l-17.051,4.225v-30.603l10.097-0.92
			l38.212,47.557l12.018,14.957l9.178,50.094l-52.574-55.66c-3.142-3.594-8.637-3.854-12.111-0.583
			c-3.468,3.274-3.523,8.777-0.119,12.126l72.109,76.314c3.543,2.948,8.688,2.948,12.229,0l72.108-76.314
			c2.065-2.197,2.798-5.333,1.921-8.221l-3.956-13.08l13.134,3.256c5.307,1.313,10.44-2.706,10.44-8.178v-55.552l69.078,0.902
			v18.009h-42.651c-11.218,0-11.218,16.825,0,16.825h51.077c2.947-0.007,5.67-1.559,7.179-4.086
			c32.261,18.689,52.173,53.09,52.31,90.37v30.865c0,11.217,16.825,11.217,16.825,0v-30.865
			C510.629,437.309,484.327,395.193,442.897,374.789L442.897,374.789z M366.462,215.781v-22.996
			c-0.006-3.536-0.443-7.056-1.313-10.478c3.368-0.738,6.653-1.516,9.857-2.324v39.929c0,0.815-0.056,1.622-0.074,2.43
			L366.462,215.781z M402.492,212.056c-0.02,7.393-4.313,14.103-11.01,17.22c0.218-3.117,0.357-6.252,0.357-9.365v-24.88
			c6.489,3.192,10.615,9.789,10.633,17.025H402.492z M256.21,142.516c-3.849,0-7.642-0.058-11.391-0.132l12.398-6.516l12.362,6.491
			C265.199,142.458,260.742,142.509,256.21,142.516L256.21,142.516z M275.107,101.654l-5.771,5.632
			c-1.978,1.935-2.874,4.721-2.405,7.45l1.364,7.943l-7.134-3.75c-2.455-1.289-5.383-1.289-7.831,0l-7.142,3.75l1.366-7.943
			c0.476-2.729-0.427-5.515-2.405-7.45l-5.765-5.632l7.982-1.159c2.74-0.395,5.107-2.115,6.334-4.601l3.567-7.212l3.576,7.212
			c1.227,2.485,3.592,4.206,6.333,4.601L275.107,101.654z M193.041,33.29c7.987-2.793,18.134,1.952,30.146,14.102
			c10.96,11.084,18.088,18.215,24.998,21.545l-7.662,15.522l-20.473,2.98c-6.905,0.996-9.66,9.477-4.663,14.346l14.823,14.421
			l-3.501,20.387c-0.289,1.752,0,3.549,0.809,5.134c-24.131-1.071-48.123-4.17-71.733-9.278
			C162.719,75.965,176.49,39.053,193.041,33.29L193.041,33.29z M111.963,212.056c0.025-7.242,4.155-13.839,10.652-17.025v24.88
			c0,3.149,0.151,6.248,0.364,9.365C116.275,226.159,111.98,219.449,111.963,212.056L111.963,212.056z M88.365,362.377l69.078-0.901
			v18.917H88.365V362.377z M284.704,404.302l-16.145-16.824l28.843-33.852c3.774,6.423,9.139,11.761,15.58,15.511L284.704,404.302z
			 M275.627,353.232l-18.409,21.595l-18.422-21.634c12.22,1.715,24.619,1.715,36.832,0V353.232z M229.734,404.302l-28.281-35.165
			c6.434-3.75,11.798-9.094,15.566-15.523l28.845,33.851L229.734,404.302z M240.361,417.528l16.857-17.551l16.856,17.568
			l-8.744,10.868c-0.875,1.088-1.465,2.377-1.721,3.754l-6.392,34.902l-6.39-34.919c-0.257-1.378-0.847-2.668-1.723-3.757
			L240.361,417.528z M340.161,406.285l-17.052-4.225c-6.341-1.59-11.991,4.346-10.096,10.599l6.828,22.595l-49.235,52.11
			l9.171-50.088l12.018-14.954l38.232-47.56l10.097,0.927L340.161,406.285z M340.161,406.285"/>
		<path clip-path="url(#SVGID_6_)" d="M47.315,390.419C19.887,413.59,3.932,447.572,3.637,483.481v30.866
			c0,11.219,16.825,11.219,16.825,0v-30.866c0.27-30.944,14.033-60.232,37.683-80.188c3.56-2.991,4.017-8.3,1.025-11.854
			c-2.985-3.558-8.298-4.021-11.854-1.027V390.419z M47.315,390.419"/>
		<path clip-path="url(#SVGID_6_)" d="M407.042,455.466c-4.644,0-8.413,3.761-8.413,8.413v50.475c0,11.217,16.825,11.217,16.825,0
			v-50.475C415.454,459.227,411.694,455.466,407.042,455.466L407.042,455.466z M407.042,455.466"/>
		<path clip-path="url(#SVGID_6_)" d="M107.393,455.466c-4.649,0-8.412,3.761-8.412,8.413v50.475c0,11.217,16.825,11.217,16.825,0
			v-50.475C115.806,459.227,112.037,455.466,107.393,455.466L107.393,455.466z M107.393,455.466"/>
	</g>
	<path fill="#28092D" d="M345.132,298.28c-0.758,0.863-1.533,1.702-2.322,2.527c-3.3,3.361-3.206,8.777,0.212,12.014
		c3.424,3.236,8.832,3.036,12.005-0.444c0.903-0.957,1.797-1.923,2.673-2.887c7.462-8.376-5.108-19.565-12.567-11.191V298.28z
		 M345.132,298.28"/>
	<path d="M259.334,214.974c-4.501-1.19-9.101,1.515-10.26,6.021l-8.006,30.846c-0.888,3.4,0.438,6.993,3.311,9.007l8.031,5.609
		c9.047,5.664,18.052-7.25,9.615-13.783l-3.225-2.261l6.541-25.182C266.514,220.738,263.828,216.146,259.334,214.974
		L259.334,214.974z M259.334,214.974"/>
	<path fill="#751010" d="M229.813,296.791c9.384,2.483,19.042,3.737,28.746,3.724c8.888,0.081,17.739-1.188,26.237-3.779
		c4.508-1.339,7.042-6.122,5.622-10.604c-1.421-4.488-6.24-6.937-10.704-5.434c-14.814,3.851-30.376,3.824-45.187-0.062
		c-10.765-3.143-15.479,13.013-4.714,16.148V296.791z M229.813,296.791"/>
	<path d="M230.409,192.459h0.381c11.216,0.243,11.585-16.583,0.369-16.826l-2.829-0.125c-11.216-0.502-11.968,16.324-0.751,16.825
		L230.409,192.459z M230.409,192.459"/>
	<path fill="#020202" d="M202.122,215.901c0,5.018,3.03,9.551,7.668,11.466c4.639,1.921,9.978,0.856,13.534-2.692
		c3.546-3.557,4.606-8.895,2.683-13.532c-1.92-4.64-6.445-7.662-11.466-7.662C207.687,203.487,202.129,209.046,202.122,215.901
		L202.122,215.901z M202.122,215.901"/>
	<path fill="#020202" d="M299.896,228.318c5.024,0,9.549-3.023,11.472-7.667c1.921-4.637,0.856-9.978-2.692-13.533
		c-3.549-3.549-8.894-4.614-13.532-2.691c-4.638,1.922-7.66,6.454-7.66,11.475C287.487,222.754,293.04,228.308,299.896,228.318
		L299.896,228.318z M299.896,228.318"/>
</g>
</svg>
