<svg height="512" viewBox="0 0 64 64" width="512" xmlns="http://www.w3.org/2000/svg"><g id="shop-2" data-name="shop"><path d="m7 15h50v42h-50z" fill="#e0e0e2"/><path d="m15 37h15v20h-15z" fill="#00d7df"/><path d="m36 28h16v14h-16z" fill="#acabb1"/><path d="m15 43h15v6h-15z" fill="#bdfdff"/><path d="m3 57h58v4h-58z" fill="#3e3d42"/><path d="m60 11v8a3.992 3.992 0 0 1 -3 3.87 3.657 3.657 0 0 1 -1 .13 4 4 0 0 1 -4-4v-8z" fill="#ff5023"/><path d="m60 11h-56l2-8h52z" fill="#ff9478"/><path d="m52 28v2a2 2 0 0 1 -4 0v-2z" fill="#ffda44"/><path d="m52 11v8a4 4 0 0 1 -8 0v-8z" fill="#ff9811"/><path d="m48 28v2a2 2 0 0 1 -4 0v-2z" fill="#ff9811"/><path d="m44 28v2a2 2 0 0 1 -4 0v-2z" fill="#ffda44"/><path d="m44 11v8a4 4 0 0 1 -8 0v-8z" fill="#ff5023"/><path d="m40 28v2a2 2 0 0 1 -4 0v-2z" fill="#ff9811"/><path d="m36 11v8a4 4 0 0 1 -8 0v-8z" fill="#ff9811"/><path d="m28 11v8a4 4 0 0 1 -8 0v-8z" fill="#ff5023"/><path d="m20 11v8a4 4 0 0 1 -8 0v-8z" fill="#ff9811"/><path d="m12 11v8a4 4 0 0 1 -4 4 3.657 3.657 0 0 1 -1-.13 3.992 3.992 0 0 1 -3-3.87v-8z" fill="#ff5023"/><path d="m61 56h-3v-32.42a5.014 5.014 0 0 0 3-4.58v-8a.986.986 0 0 0 -.03-.24l-2-8a1 1 0 0 0 -.97-.76h-52a1 1 0 0 0 -.97.76l-2 8a.986.986 0 0 0 -.03.24v8a5.014 5.014 0 0 0 3 4.58v32.42h-3a1 1 0 0 0 -1 1v4a1 1 0 0 0 1 1h58a1 1 0 0 0 1-1v-4a1 1 0 0 0 -1-1zm-2-44v7a3 3 0 0 1 -6 0v-7zm-29 24h-15a1 1 0 0 0 -1 1v19h-6v-32a5.01 5.01 0 0 0 4-2 5 5 0 0 0 8 0 5 5 0 0 0 8 0 5 5 0 0 0 8 0 5 5 0 0 0 8 0 5 5 0 0 0 8 0 5.01 5.01 0 0 0 4 2v32h-25v-19a1 1 0 0 0 -1-1zm-14 12v-4h13v4zm13 2v6h-13v-6zm-13-8v-4h13v4zm-3-23v-7h6v7a3 3 0 0 1 -6 0zm8 0v-7h6v7a3 3 0 0 1 -6 0zm8 0v-7h6v7a3 3 0 0 1 -6 0zm8 0v-7h6v7a3 3 0 0 1 -6 0zm8 0v-7h6v7a3 3 0 0 1 -6 0zm-38.22-15h50.44l1.5 6h-53.44zm-1.78 15v-7h6v7a3 3 0 0 1 -6 0zm55 41h-56v-2h56z"/><path d="m17.74 45h2v2h-2z"/><path d="m53 29h1v-2h-20v2h1v12h-1v2h20v-2h-1zm-8 0h2v1a1 1 0 0 1 -2 0zm-4 0h2v1a1 1 0 0 1 -2 0zm-4 0h2v1a1 1 0 0 1 -2 0zm14 12h-14v-8.18a3 3 0 0 0 1 .18 2.974 2.974 0 0 0 2-.78 2.954 2.954 0 0 0 4 0 2.954 2.954 0 0 0 4 0 2.974 2.974 0 0 0 2 .78 3 3 0 0 0 1-.18zm0-11a1 1 0 0 1 -2 0v-1h2z"/></g></svg>