<?xml version="1.0" encoding="utf-8"?>
<!-- Generator: Adobe Illustrator 16.0.0, SVG Export Plug-In . SVG Version: 6.00 Build 0)  -->
<!DOCTYPE svg PUBLIC "-//W3C//DTD SVG 1.1//EN" "http://www.w3.org/Graphics/SVG/1.1/DTD/svg11.dtd">
<svg version="1.1" id="Capa_1" xmlns="http://www.w3.org/2000/svg" xmlns:xlink="http://www.w3.org/1999/xlink" x="0px" y="0px"
	 width="512px" height="512px" viewBox="0 0 512 512" enable-background="new 0 0 512 512" xml:space="preserve">
<g>
	<g>
		<g>
			<path fill="#A6AFBC" d="M9.481,256L9.481,256C9.481,119.855,119.855,9.481,256,9.481l0,0
				c136.145,0,246.519,110.374,246.519,246.519l0,0c0,136.145-110.374,246.519-246.519,246.519l0,0
				C119.855,502.519,9.481,392.145,9.481,256z"/>
			<path fill="#020202" d="M256,512C114.84,512,0,397.16,0,256S114.84,0,256,0s256,114.84,256,256S397.16,512,256,512z M256,18.963
				C125.298,18.963,18.963,125.298,18.963,256S125.298,493.037,256,493.037S493.037,386.702,493.037,256S386.702,18.963,256,18.963z
				"/>
		</g>
		<path fill="#FFFFFF" d="M256,331.842c-4.153,0-8.296-1.583-11.463-4.74L135.519,218.083c-3.708-3.707-3.708-9.7,0-13.407
			c3.707-3.707,9.699-3.707,13.407,0L256,311.751l107.074-107.074c3.707-3.707,9.699-3.707,13.407,0c3.707,3.707,3.707,9.7,0,13.407
			L267.463,327.102C264.306,330.259,260.152,331.842,256,331.842z"/>
	</g>
</g>
</svg>
