<?xml version="1.0"?>
<svg xmlns="http://www.w3.org/2000/svg" height="512px" viewBox="0 0 64 64" width="512px" class=""><g><path d="m56.16 24.38c-1.89 5.15-7.86 10.61-12.84 10.04a5.6 5.6 0 0 1 -2.58-.94 9.5 9.5 0 0 1 -3.55-5.38 17.035 17.035 0 0 1 -.61-2.99 17.366 17.366 0 0 1 .78-7.58 9.942 9.942 0 0 1 4.61-5.34 9.065 9.065 0 0 1 1.42-.64 9.9 9.9 0 0 1 6.79.01 10.012 10.012 0 0 1 5.98 12.82z" fill="#00ccb3" data-original="#00CCB3" class="" data-old_color="#00ccb3" style="fill:#082BDF"/><path d="m28.43 28.78c-.33 3.63-1.71 7.08-4.17 8.7a5.6 5.6 0 0 1 -2.58.94c-4.98.57-10.95-4.89-12.84-10.04a9.992 9.992 0 0 1 11.16-13.26 9.14 9.14 0 0 1 2.3.7 9.991 9.991 0 0 1 5.34 5.71 15.277 15.277 0 0 1 .85 4.39 17.082 17.082 0 0 1 -.06 2.86z" fill="#ffde55" data-original="#FFDE55" class=""/><path d="m53 38c0 4 4 4 4 4-4 0-4 4-4 4 0-4-4-4-4-4 4 0 4-4 4-4z" fill="#ff9811" data-original="#FF9811" class=""/><path d="m43.32 34.42-.84 4.13-1.88-.68-1.88-.68 2.02-3.71a5.6 5.6 0 0 0 2.58.94z" fill="#00b39d" data-original="#00B39D" class="active-path" data-old_color="#00b39d" style="fill:#023684"/><path d="m28.43 28.78a7.428 7.428 0 0 1 -1.94-.86c-3.05-1.93-5.4-6.11-6.19-10.1a14.216 14.216 0 0 1 -.3-2.7 9.14 9.14 0 0 1 2.3.7 9.991 9.991 0 0 1 5.34 5.71 15.277 15.277 0 0 1 .85 4.39 17.082 17.082 0 0 1 -.06 2.86z" fill="#ffcd00" data-original="#FFCD00" class=""/><path d="m24.26 37.48 2.02 3.71-1.88.68-1.88.68-.84-4.13a5.6 5.6 0 0 0 2.58-.94z" fill="#ffd422" data-original="#FFD422" class=""/><path d="m15 50c0 4 4 4 4 4-4 0-4 4-4 4 0-4-4-4-4-4 4 0 4-4 4-4z" fill="#ff9811" data-original="#FF9811" class=""/><path d="m9 3c0 4 4 4 4 4-4 0-4 4-4 4 0-4-4-4-4-4 4 0 4-4 4-4z" fill="#ff9811" data-original="#FF9811" class=""/><path d="m33.37 26.83.63 4.17h-4l.63-4.17a5.605 5.605 0 0 0 2.74 0z" fill="#ed1c24" data-original="#ED1C24" class=""/><path d="m44 15a17.2 17.2 0 0 1 -5.42 12.11 8.625 8.625 0 0 1 -1.39.99 17.035 17.035 0 0 1 -.61-2.99 17.366 17.366 0 0 1 .78-7.58 9.942 9.942 0 0 1 4.61-5.34 9.065 9.065 0 0 1 1.42-.64 10.027 10.027 0 0 1 .58 2.64c.02.26.03.54.03.81z" fill="#00b39d" data-original="#00B39D" class="active-path" data-old_color="#00b39d" style="fill:#023684"/><path d="m41.97 12.19a10 10 0 0 0 -19.97.81 13.879 13.879 0 0 0 .3 2.82c.79 3.99 3.14 8.17 6.19 10.1a7.156 7.156 0 0 0 2.14.91 5.605 5.605 0 0 0 2.74 0 7.638 7.638 0 0 0 3.21-1.72 17.2 17.2 0 0 0 5.42-12.11c0-.27-.01-.55-.03-.81z" fill="#ff5023" data-original="#FF5023" class="" data-old_color="#ff5023" style="fill:#FF5023"/><path d="m57.1 24.72a10.987 10.987 0 0 0 -14.34-13.994 11 11 0 0 0 -21.76 2.274c0 .432.03.881.076 1.338a10.912 10.912 0 0 0 -6.6.283 11.027 11.027 0 0 0 -6.576 14.103c1.793 4.9 7.571 10.666 12.972 10.734l.665 3.293a1 1 0 0 0 .98.8.987.987 0 0 0 .342-.061l.951-.346 7.253 19.207.937-.351.942.336 8.265-23.183.934.34a.978.978 0 0 0 .341.061 1 1 0 0 0 .981-.8l.664-3.293c5.4-.073 11.179-5.837 12.973-10.741zm-7.262-12.22a9.024 9.024 0 0 1 5.383 11.536c-1.969 5.381-8.434 10.764-12.911 9.133-2.785-1.007-4.22-4.542-4.672-7.686a18.765 18.765 0 0 0 5.362-12.483c0-.065-.009-.129-.01-.194a8.966 8.966 0 0 1 6.848-.306zm-17.838-8.5a9.01 9.01 0 0 1 9 9c0 5.73-4.237 13-9 13s-9-7.27-9-13a9.011 9.011 0 0 1 9-9zm.837 26h-1.674l.308-2.046c.177.014.35.046.529.046s.352-.032.529-.046zm-23.057-1.96a9.025 9.025 0 0 1 5.382-11.54 8.914 8.914 0 0 1 6.293.062c.9 3.763 3.085 7.749 6.053 9.879.151 4.477-1.415 9.486-4.821 10.729-4.462 1.63-10.938-3.752-12.907-9.13zm13.083 11.169c.171-.048.341-.1.51-.16s.323-.141.484-.214l.985 1.809-1.573.572zm4.292 1.5-1.608-2.949a11.892 11.892 0 0 0 3.5-6.467.984.984 0 0 0 .2.361 1 1 0 0 0 .753.346h1v24.521l-5.309-14.058.928-.338a1 1 0 0 0 .536-1.418zm5.845 15.508v-24.217h1a1 1 0 0 0 .989-1.149l-.5-3.327a8.39 8.39 0 0 0 1.357-.672 12.1 12.1 0 0 0 3.607 6.908l-1.605 2.947a1 1 0 0 0 .536 1.418l.945.344zm7.158-19.573.98-1.8c.161.074.323.145.49.2s.338.113.509.16l-.405 2.007z" data-original="#000000" class="" style="fill:#000000" data-old_color="#000000"/><path d="m57.005 41a2.853 2.853 0 0 1 -3.005-3v-.013a1 1 0 0 0 -2 .01 2.853 2.853 0 0 1 -3 3.003h-.015a1 1 0 0 0 .015 2 2.853 2.853 0 0 1 3 3v.013a1 1 0 0 0 2-.01 2.853 2.853 0 0 1 3-3.003h.015a1 1 0 0 0 -.01-2zm-3.988 1.852a4.363 4.363 0 0 0 -.87-.835 4.39 4.39 0 0 0 .836-.869 4.363 4.363 0 0 0 .87.835 4.39 4.39 0 0 0 -.836.869z" data-original="#000000" class="" style="fill:#000000" data-old_color="#000000"/><path d="m19.005 53a2.853 2.853 0 0 1 -3-3v-.013a1 1 0 0 0 -2.005.013 2.853 2.853 0 0 1 -3 3h-.015a1 1 0 0 0 .015 2 2.853 2.853 0 0 1 3 3v.013a1 1 0 0 0 2-.01 2.853 2.853 0 0 1 3-3.003h.015a1 1 0 0 0 -.01-2zm-3.988 1.852a4.413 4.413 0 0 0 -.869-.835 4.413 4.413 0 0 0 .835-.869 4.413 4.413 0 0 0 .869.835 4.413 4.413 0 0 0 -.835.869z" data-original="#000000" class="" style="fill:#000000" data-old_color="#000000"/><path d="m8 11v.01a1 1 0 0 0 2-.01 2.853 2.853 0 0 1 3-3h.015a1 1 0 0 0 -.01-2 2.853 2.853 0 0 1 -3.005-3v-.013a1 1 0 0 0 -2 .013 2.853 2.853 0 0 1 -3 3 .033.033 0 0 0 -.01 0 1 1 0 0 0 .01 2 2.853 2.853 0 0 1 3 3zm.983-4.855a4.413 4.413 0 0 0 .869.835 4.413 4.413 0 0 0 -.835.869 4.413 4.413 0 0 0 -.869-.835 4.413 4.413 0 0 0 .835-.866z" data-original="#000000" class="" style="fill:#000000" data-old_color="#000000"/></g> </svg>
