<svg height="512pt" viewBox="0 -60 512.00006 512" width="512pt" xmlns="http://www.w3.org/2000/svg"><path d="m43.648438 102.664062c-11.507813 0-20.835938 9.328126-20.835938 20.835938 0 7.128906 3.644531 13.765625 9.664062 17.589844l28.640626 18.191406c7.230468 4.589844 10.085937 13.734375 6.753906 21.621094l-58.097656 137.503906c-7.933594 18.777344 5.851562 39.566406 26.238281 39.566406h65.863281c11.445312 0 21.78125-6.851562 26.234375-17.398437l66.765625-158.019531c3.921875-9.285157 13.027344-15.320313 23.109375-15.320313h232.363281c9.585938 0 17.355469-7.773437 17.355469-17.359375v-47.210938zm0 0" fill="#423e38"/><path d="m450.671875 102.664062v28.085938c0 9.585938-7.773437 17.359375-17.359375 17.359375h-232.363281c-10.082031 0-19.183594 6.035156-23.109375 15.320313l-66.765625 158.019531c-4.453125 10.542969-14.789063 17.398437-26.234375 17.398437-66-.636718-67.609375 1.476563-76.355469-1.972656 3.199219 11.785156 13.882813 21.097656 27.523437 21.097656h65.863282c11.449218 0 21.78125-6.855468 26.238281-17.398437l66.765625-158.019531c3.921875-9.285157 13.023438-15.320313 23.105469-15.320313h232.363281c9.585938 0 17.359375-7.773437 17.359375-17.359375v-47.210938zm0 0" fill="#302e29"/><path d="m491.292969 130.71875h-23.589844v-60.339844h23.589844c7.285156 0 13.191406 5.910156 13.191406 13.195313v33.953125c0 7.285156-5.90625 13.191406-13.191406 13.191406zm0 0" fill="#86a1ad"/><path d="m138.941406 38.097656h-40.5v-14.21875c0-9.039062 7.328125-16.363281 16.363282-16.363281h7.773437c9.039063 0 16.363281 7.328125 16.363281 16.363281zm0 0" fill="#423e38"/><path d="m83.601562 384.007812h-35.410156c-11.621094 0-21.039062-9.417968-21.039062-21.039062v-4.996094h77.488281v4.996094c0 11.621094-9.417969 21.039062-21.039063 21.039062zm0 0" fill="#423e38"/><path d="m47.011719 230.269531-30.121094 71.289063h127.703125l30.121094-71.289063zm0 0" fill="#9e5015"/><path d="m144.59375 301.558594 30.121094-71.289063h-25.113282l-30.121093 71.289063zm0 0" fill="#854312"/><path d="m453.675781 38.097656h-366.003906c-7.746094 0-14.027344 6.28125-14.027344 14.027344v50.542969h394.058594v-50.542969c0-7.746094-6.28125-14.027344-14.027344-14.027344zm0 0" fill="#9dbdcb"/><path d="m453.675781 38.097656h-17.542969c7.75 0 14.027344 6.28125 14.027344 14.027344v50.542969h17.542969v-50.542969c0-7.746094-6.28125-14.027344-14.027344-14.027344zm0 0" fill="#86a1ad"/><path d="m491.292969 62.867188h-16.074219v-10.742188c0-11.878906-9.664062-21.542969-21.542969-21.542969h-183.65625c-4.152343 0-7.515625 3.363281-7.515625 7.515625 0 4.148438 3.363282 7.511719 7.515625 7.511719h183.65625c3.589844 0 6.511719 2.921875 6.511719 6.515625v43.027344h-271.992188v-12.007813c0-4.152343-3.363281-7.515625-7.511718-7.515625-4.152344 0-7.515625 3.363282-7.515625 7.515625v12.007813h-14.3125v-12.007813c0-4.152343-3.363281-7.515625-7.515625-7.515625-4.148438 0-7.511719 3.363282-7.511719 7.515625v12.007813h-14.316406v-12.007813c0-4.152343-3.363281-7.515625-7.511719-7.515625-4.152344 0-7.515625 3.363282-7.515625 7.515625v12.007813h-33.324219v-43.027344c0-3.59375 2.921875-6.515625 6.511719-6.515625h154.292969c4.148437 0 7.511718-3.363281 7.511718-7.511719 0-4.152344-3.363281-7.515625-7.511718-7.515625h-95.507813v-6.703125c0-13.167968-10.710937-23.878906-23.878906-23.878906h-7.773437c-13.167969 0-23.878907 10.710938-23.878907 23.878906v6.703125h-3.253906c-11.878906 0-21.542969 9.664063-21.542969 21.542969v43.027344h-22.480468c-28.320313 0-39.007813 37.15625-15.199219 52.277344l28.640625 18.191406c4.148437 2.632812 5.769531 7.832031 3.859375 12.355468-5.496094 13.003907-44.3125 104.878907-50.980469 120.660157l-7.113281 16.84375c-7.421875 17.558593.136719 37.5625 16.78125 46.0625v1.425781c0 15.742188 12.8125 28.554688 28.554687 28.554688h35.410156c15.402344 0 27.984376-12.257813 28.527344-27.527344 10.152344-3.007813 18.636719-10.398438 22.902344-20.496094l47.285156-111.914062h23.164063c28.070312 0 50.910156-22.839844 50.910156-50.910157v-5.929687h193.957031c13.714844 0 24.871094-11.15625 24.871094-24.871094v-11.640625h16.074219c11.417969 0 20.707031-9.289063 20.707031-20.707031v-33.953125c0-11.417969-9.289062-20.707031-20.707031-20.707031zm-385.335938-38.988282c0-4.878906 3.96875-8.847656 8.847657-8.847656h7.773437c4.878906 0 8.847656 3.96875 8.847656 8.847656v6.703125h-25.46875zm-22.355469 352.617188h-35.410156c-6.597656 0-12.105468-4.75-13.289062-11.007813h61.988281c-1.183594 6.257813-6.691406 11.007813-13.289063 11.007813zm56.007813-82.449219h-51.9375c-4.152344 0-7.515625 3.363281-7.515625 7.511719 0 4.152344 3.363281 7.515625 7.515625 7.515625h45.589844l-12.074219 28.578125c-3.289062 7.777344-10.871094 12.804687-19.316406 12.804687h-65.859375c-14.941407 0-25.199219-15.207031-19.3125-29.125l5.175781-12.257812h37.742188c4.152343 0 7.515624-3.363281 7.515624-7.515625 0-4.148438-3.363281-7.511719-7.515624-7.511719h-31.394532l23.773438-56.261719h111.386718zm101.75-113.371094c0 19.785157-16.09375 35.882813-35.878906 35.882813h-16.8125l13.128906-31.078125c2.753906-6.519531 9.105469-10.730469 16.183594-10.730469h23.378906zm218.828125-30.800781c0 5.429688-4.414062 9.84375-9.839844 9.84375h-232.367187c-13.128907 0-24.917969 7.816406-30.027344 19.914062l-18.222656 43.125h-111.386719l16.449219-38.929687c4.78125-11.316406.726562-24.308594-9.644531-30.894531l-28.644532-18.191406c-11.183594-7.105469-6.164062-24.5625 7.144532-24.5625h416.539062zm36.78125-32.347656c0 3.128906-2.546875 5.675781-5.675781 5.675781h-16.074219c0-13.746094 0-30.1875 0-45.308594h16.074219c3.128906 0 5.675781 2.546875 5.675781 5.679688zm0 0"/></svg>