<svg id="_x33_0" enable-background="new 0 0 64 64" height="512" viewBox="0 0 64 64" width="512" xmlns="http://www.w3.org/2000/svg"><path d="m30 4v4h-7c-.55 0-1 .45-1 1v3.5c-1.28-.33-2.62-.5-4-.5v-5c0-1.66 1.34-3 3-3z" fill="#cf9e76"/><path d="m22.99 56.83-.2-2.81.21-.02h34c.55 0 1-.45 1-1v-44c0-.55-.45-1-1-1h-7v-4h9c1.66 0 3 1.34 3 3v48c0 1.66-1.34 3-3 3h-36l-.07-.01c.05-.26.07-.54.07-.82 0-.11 0-.23-.01-.34z" fill="#cf9e76"/><path d="m50 4v4 1c0 .55-.45 1-1 1h-18c-.55 0-1-.45-1-1v-1-4-1c0-.55.45-1 1-1h18c.55 0 1 .45 1 1z" fill="#5cd6b3"/><path d="m57 8h-7v1c0 .55-.45 1-1 1h-18c-.55 0-1-.45-1-1v-1h-7c-.55 0-1 .45-1 1v45h35c.55 0 1-.45 1-1v-44c0-.55-.45-1-1-1z" fill="#ffeaa7"/><path d="m22.99 56.83c.01.11.01.23.01.34 0 .28-.02.56-.07.82-.39 2.28-2.37 4.01-4.76 4.01h-.34c-2.67 0-4.83-2.16-4.83-4.83 0-.11 0-.23.01-.34l.67-9.31c1.39.31 2.83.48 4.32.48s2.93-.17 4.32-.48l.47 6.5z" fill="#969faa"/><path d="m22.03 43.49.29 4.03c-1.39.31-2.83.48-4.32.48s-2.93-.17-4.32-.48l.29-4.03c1.29.33 2.64.51 4.03.51s2.74-.18 4.03-.51z" fill="#ccd1d9"/><path d="m22.03 43.49c-1.29.33-2.64.51-4.03.51s-2.74-.18-4.03-.51c-6.89-1.79-11.97-8.04-11.97-15.49 0-8.84 7.16-16 16-16 1.38 0 2.72.17 4 .5 6.9 1.78 12 8.04 12 15.5 0 7.45-5.08 13.7-11.97 15.49z" fill="#e6e9ed"/><path d="m18 16c6.63 0 12 5.37 12 12s-5.37 12-12 12-12-5.37-12-12 5.37-12 12-12z" fill="#69d6f4"/><path d="m9.515 27h16.971v2h-16.971z" transform="matrix(.707 -.707 .707 .707 -14.527 20.929)"/><path d="m14 27c1.654 0 3-1.346 3-3s-1.346-3-3-3-3 1.346-3 3 1.346 3 3 3zm0-4c.551 0 1 .448 1 1s-.449 1-1 1-1-.448-1-1 .449-1 1-1z"/><path d="m22 29c-1.654 0-3 1.346-3 3s1.346 3 3 3 3-1.346 3-3-1.346-3-3-3zm0 4c-.551 0-1-.448-1-1s.449-1 1-1 1 .448 1 1-.449 1-1 1z"/><path d="m31 28c0-7.168-5.832-13-13-13s-13 5.832-13 13 5.832 13 13 13 13-5.832 13-13zm-24 0c0-6.065 4.935-11 11-11s11 4.935 11 11-4.935 11-11 11-11-4.935-11-11z"/><path d="m59 3h-8c0-1.103-.897-2-2-2h-18c-1.103 0-2 .897-2 2h-8c-2.206 0-4 1.794-4 4v4.051c-8.908.522-16 7.913-16 16.949 0 7.601 5.015 14.052 11.91 16.22l-.896 12.536c-.009.138-.014.277-.014.416 0 3.214 2.614 5.828 5.828 5.828h.345c2.575 0 4.761-1.68 5.53-4h35.297c2.206 0 4-1.794 4-4v-48c0-2.206-1.794-4-4-4zm-28 0h18l.001 6h-18.001zm18 8c1.103 0 2-.897 2-2h6v44h-33.283l-.627-8.78c6.895-2.168 11.91-8.619 11.91-16.22 0-7.634-5.059-14.107-12-16.247v-2.753h6c0 1.103.897 2 2 2zm-28-6h8v2h-6c-1.103 0-2 .897-2 2v2.281c-.654-.117-1.322-.191-2-.231v-4.05c0-1.103.897-2 2-2zm-18 23c0-8.271 6.729-15 15-15s15 6.729 15 15-6.729 15-15 15-15-6.729-15-15zm15 17c1.066 0 2.106-.111 3.119-.3l.143 2.005c-2.182.384-4.342.384-6.524 0l.143-2.005c1.013.189 2.053.3 3.119.3zm.172 16h-.345c-2.11 0-3.827-1.718-3.827-3.828 0-.09.003-.181.01-.272l.585-8.185c1.141.189 2.283.285 3.405.285s2.263-.096 3.405-.286l.585 8.186c.007.091.01.182.01.271 0 2.111-1.717 3.829-3.828 3.829zm42.828-6c0 1.103-.897 2-2 2h-35.006c-.002-.081-.003-.163-.009-.243l-.125-1.757h33.14c1.103 0 2-.897 2-2v-44c0-1.103-.897-2-2-2h-6v-2h8c1.103 0 2 .897 2 2z"/><path d="m41 13h12v2h-12z"/><path d="m37 13h2v2h-2z"/><path d="m37 17h8v2h-8z"/><path d="m37 21h12v2h-12z"/><path d="m37 25h16v2h-16z"/><path d="m37 29h16v2h-16z"/><path d="m47 33h6v2h-6z"/><path d="m37 37h12v2h-12z"/><path d="m37 41h16v2h-16z"/><path d="m47 17h6v2h-6z"/><path d="m51 21h2v2h-2z"/><path d="m37 33h8v2h-8z"/><path d="m51 37h2v2h-2z"/><path d="m45 5h2v2h-2z"/><path d="m33 5h2v2h-2z"/></svg>