<?xml version="1.0"?>
<svg xmlns="http://www.w3.org/2000/svg" viewBox="0 0 64 64" width="512" height="512"><path d="m57.808 28.892a4.038 4.038 0 0 1 .283-4.714 12.993 12.993 0 0 0 -20.136-16.427 8.165 8.165 0 0 1 -8.427 2.865 16.989 16.989 0 0 0 -18.943 25.384h6.2a26.022 26.022 0 0 0 8.215-1.334l11-3.666v6h1a3 3 0 0 1 3 3v4a3 3 0 0 1 -3 3h-1v6l-11-3.666a26.066 26.066 0 0 0 -4.25-1.022 20.979 20.979 0 1 0 37.055-19.42z" fill="#74d5e8"/><path d="m28 30a2 2 0 0 0 2-2v-5a2 2 0 0 0 -2-2h-1a2 2 0 0 1 -2-2v-3a2 2 0 0 0 -4 0v3a2 2 0 0 1 -2 2h-1v9z" fill="#fff5e0"/><path d="m9 48 1.165 12a1 1 0 0 0 1 1h5.835a1 1 0 0 0 .988-1.152l-2.988-11.848z" fill="#7d7d7d"/><path d="m37 47a3 3 0 0 0 3-3v-4a3 3 0 0 0 -3-3h-1v10z" fill="#f2a811"/><path d="m9 48v-12a6 6 0 0 0 0 12z" fill="#7d7d7d"/><path d="m13 48v-12h-2.415-1.585v12z" fill="#f2a811"/><path d="m25 34.666a26.022 26.022 0 0 1 -8.219 1.334h-3.781v12h3.781a26.536 26.536 0 0 1 8.219 1.334l11 3.666v-22z" fill="#d9d9d9"/><path d="m48 24a8 8 0 1 0 -8-8 8 8 0 0 0 8 8z" fill="#fff5e0"/><g fill="#10bde0"><path d="m46 12v8l6-4z"/><path d="m18 30v-9-1h-4v11h4z"/><path d="m53.464 38.336-1.636 1.09-1.635-1.09a2 2 0 0 0 -2.524.25l-.426.426a2 2 0 0 0 0 2.829l4.585 4.585 4.586-4.585a2 2 0 0 0 0-2.829l-.426-.426a2 2 0 0 0 -2.524-.25z"/></g><path d="m8.086 48.933 1.079 11.067a2 2 0 0 0 2 2h5.835a2 2 0 0 0 1.518-.7 2.044 2.044 0 0 0 .44-1.7l-2.674-10.6h.5a24.978 24.978 0 0 1 3.306.238 21.96 21.96 0 0 0 19.945 12.762q.99 0 2-.089a22.162 22.162 0 0 0 19.9-20.119 21.834 21.834 0 0 0 -3.273-13.429 3.051 3.051 0 0 1 .211-3.551 13.9 13.9 0 0 0 2.988-10.849 14 14 0 0 0 -24.678-6.847 7.171 7.171 0 0 1 -7.383 2.537 17.953 17.953 0 0 0 -7.1-.508 18.151 18.151 0 0 0 -15.536 15.394 17.889 17.889 0 0 0 1.722 10.467 6.993 6.993 0 0 0 -.8 13.927zm1.914-1.933v-10h2v10zm7 13-5.84-.1-1.06-10.9h4.119zm-3-13v-10h2.781a26.934 26.934 0 0 0 8.538-1.386l4.681-1.56v15.892l-4.681-1.56a26.934 26.934 0 0 0 -8.538-1.386zm21-14.613v19.226l-3-1v-17.226zm-25.854-7.587a15.99 15.99 0 0 1 20.114-13.22 9.167 9.167 0 0 0 9.468-3.194 11.993 11.993 0 0 1 18.588 15.161 5.053 5.053 0 0 0 -.355 5.876 19.852 19.852 0 0 1 2.974 12.208 19.968 19.968 0 0 1 -37.385 8.051c.718.171 1.432.366 2.137.6l11 3.666a1.01 1.01 0 0 0 .313.052 1 1 0 0 0 1-1v-5a4 4 0 0 0 4-4v-4a4 4 0 0 0 -4-4v-5a1 1 0 0 0 -1.316-.949l-11 3.666a24.965 24.965 0 0 1 -7.903 1.283h-5.616a15.89 15.89 0 0 1 -2.019-10.2zm27.854 13.2a2 2 0 0 1 2 2v4a2 2 0 0 1 -2 2zm-29-.9v9.8a5 5 0 0 1 0-9.8z"/><path d="m16 43h4v2h-4z"/><path d="m16 39h4v2h-4z"/><path d="m45.528 20.882a1 1 0 0 0 1.027-.05l6-4a1 1 0 0 0 0-1.664l-6-4a1 1 0 0 0 -1.555.832v8a1 1 0 0 0 .528.882zm1.472-7.013 3.2 2.131-3.2 2.131z"/><path d="m48 25a9 9 0 1 0 -9-9 9.01 9.01 0 0 0 9 9zm0-16a7 7 0 1 1 -7 7 7.008 7.008 0 0 1 7-7z"/><path d="m14 32h4a1 1 0 0 0 1-1h9a3 3 0 0 0 3-3v-5a3 3 0 0 0 -3-3h-1a1 1 0 0 1 -1-1v-3a3 3 0 0 0 -6 0v3a1 1 0 0 1 -1 1 1 1 0 0 0 -1-1h-4a1 1 0 0 0 -1 1v11a1 1 0 0 0 1 1zm8-13v-3a1 1 0 0 1 2 0v3a3 3 0 0 0 3 3h1a1 1 0 0 1 1 1v5a1 1 0 0 1 -1 1h-9v-7a3 3 0 0 0 3-3zm-7 2h2v9h-2z"/><path d="m52.909 37.5-1.081.721-1.081-.721a3.009 3.009 0 0 0 -3.785.374l-.428.428a3 3 0 0 0 0 4.242l4.586 4.585a1 1 0 0 0 1.414 0l4.586-4.585a3 3 0 0 0 0-4.242l-.426-.428a3.011 3.011 0 0 0 -3.785-.374zm2.372 1.788.426.427a1 1 0 0 1 0 1.415l-3.879 3.878-3.878-3.874a1 1 0 0 1 0-1.414l.427-.427a1 1 0 0 1 1.262-.125l1.635 1.09a1 1 0 0 0 1.11 0l1.636-1.09a1 1 0 0 1 1.261.124z"/><path d="m39.438 30h4.123v1.999h-4.123z" transform="matrix(.24276855 -.97008424 .97008424 .24276855 1.353 63.733)"/><path d="m42.764 33h4.472v2h-4.472z" transform="matrix(.89442759 -.4472128 .4472128 .89442759 -10.454 23.714)"/><path d="m40.5 51.938h1.999v4.123h-1.999z" transform="matrix(.97014353 -.2425315 .2425315 .97014353 -11.858 11.678)"/><path d="m44 48.764h2v4.472h-2z" transform="matrix(.4472128 -.89442759 .89442759 .4472128 -20.74 68.441)"/><path d="m3 29h2c0-13.57 8.047-22 21-22v-2c-14.187 0-23 9.2-23 24z"/></svg>
