<svg height="511pt" viewBox="1 -26 511.999 511" width="511pt" xmlns="http://www.w3.org/2000/svg"><path d="m16.851562 374.285156 195.472657-338.570312c19.414062-33.621094 67.9375-33.621094 87.351562 0l195.472657 338.570312c19.410156 33.621094-4.855469 75.644532-43.675782 75.644532h-390.945312c-38.820313 0-63.085938-42.023438-43.675782-75.644532zm0 0" fill="#ff9357"/><path d="m451.472656 459.929688h-390.945312c-21.847656 0-41.410156-11.292969-52.335938-30.214844-10.921875-18.917969-10.921875-41.511719 0-60.429688l195.476563-338.570312c10.921875-18.921875 30.484375-30.214844 52.332031-30.214844 21.84375 0 41.410156 11.292969 52.332031 30.214844l81.542969 141.234375c2.761719 4.78125 1.121094 10.898437-3.660156 13.660156-4.78125 2.757813-10.898438 1.121094-13.660156-3.660156l-81.542969-141.234375c-7.304688-12.660156-20.394531-20.214844-35.011719-20.214844s-27.707031 7.554688-35.015625 20.214844l-195.472656 338.570312c-7.308594 12.660156-7.308594 27.773438 0 40.429688 7.308593 12.660156 20.394531 20.21875 35.015625 20.21875h390.945312c14.617188 0 27.707032-7.558594 35.015625-20.21875 7.308594-12.65625 7.308594-27.769532 0-40.429688l-68.933593-119.394531c-2.761719-4.78125-1.121094-10.898437 3.660156-13.660156 4.785156-2.761719 10.898437-1.121094 13.660156 3.660156l68.933594 119.394531c10.921875 18.921875 10.921875 41.511719 0 60.429688-10.925782 18.921875-30.488282 30.214844-52.335938 30.214844zm0 0"/><path d="m403.71875 225.925781c-2.640625 0-5.210938-1.070312-7.082031-2.929687-1.859375-1.859375-2.929688-4.441406-2.929688-7.070313 0-2.628906 1.070313-5.207031 2.929688-7.070312 1.859375-1.855469 4.441406-2.929688 7.082031-2.929688 2.628906 0 5.199219 1.070313 7.058594 2.929688 1.867187 1.863281 2.929687 4.441406 2.929687 7.070312 0 2.628907-1.0625 5.210938-2.929687 7.070313-1.859375 1.859375-4.429688 2.929687-7.058594 2.929687zm0 0"/><path d="m279.996094 341.820312c0 13.253907-10.742188 23.996094-23.996094 23.996094s-24-10.742187-24-23.996094c0-13.253906 10.746094-24 24-24s23.996094 10.746094 23.996094 24zm0 0" fill="#fff"/><path d="m256 272.128906c-13.253906 0-24-10.746094-24-24v-84.1875c0-13.253906 10.746094-24 24-24s23.996094 10.746094 23.996094 24v84.1875c0 13.253906-10.742188 24-23.996094 24zm0 0" fill="#fff"/><path d="m256 375.816406c-18.746094 0-33.996094-15.25-33.996094-33.996094 0-18.746093 15.25-33.996093 33.996094-33.996093s33.996094 15.25 33.996094 33.996093c0 18.746094-15.25 33.996094-33.996094 33.996094zm0-47.996094c-7.71875 0-14 6.28125-14 14s6.28125 14 14 14 14-6.28125 14-14-6.28125-14-14-14zm0 0"/><path d="m256 282.128906c-18.746094 0-33.996094-15.25-33.996094-34v-84.1875c0-18.75 15.25-34 33.996094-34s33.996094 15.25 33.996094 34v84.1875c0 18.75-15.25 34-33.996094 34zm0-132.1875c-7.71875 0-14 6.277344-14 14v84.1875c0 7.722656 6.28125 14 14 14s14-6.277344 14-14v-84.1875c0-7.722656-6.28125-14-14-14zm0 0"/></svg>