<?xml version="1.0"?>
<svg xmlns="http://www.w3.org/2000/svg" id="Filled_Expand" enable-background="new 0 0 64 64" height="512px" viewBox="0 0 64 64" width="512px" class=""><g><path d="m17 63h43c.552 0 1-.448 1-1v-60c0-.552-.448-1-1-1h-42c-.552 0-1 .448-1 1z" fill="#ff593f" data-original="#FF593F" class="" data-old_color="#ff593f" style="fill:#4A3D3C"/><path d="m21 59h25l11-10v-42h-36z" fill="#fffefe" data-original="#FFFEFE" class="" data-old_color="#fffefe" style="fill:#FFE2B5"/><path d="m28 11h22c.552 0 1-.448 1-1v-9h-24v9c0 .552.448 1 1 1z" fill="#ffde66" data-original="#FFDE66" class=""/><path d="m46 49h11l-11 10z" fill="#ebebeb" data-original="#EBEBEB"/><path d="m28 17h23v16h-23z" fill="#ff9c8c" data-original="#FF9C8C" class="" data-old_color="#ff9c8c" style="fill:#B69126"/><path d="m33 27-1.352 7.661c-1.059 6-4.36 11.373-9.235 15.029l-4.413 3.31-4.543-3.452c-4.811-3.655-8.066-8.991-9.116-14.942l-1.341-7.606 15-8z" fill="#bde660" data-original="#BDE660" class="active-path" data-old_color="#bde660" style="fill:#B0A279"/><path d="m15.877 46.363c-4.021-3.056-6.719-7.478-7.596-12.451l-.837-4.749 10.556-5.63 10.556 5.63-.847 4.802c-.886 5.019-3.619 9.466-7.696 12.524l-1.998 1.499z" fill="#fdfefc" data-original="#FDFEFC" class=""/><path d="m60 0h-42c-1.103 0-2 .897-2 2v14h2v-14h8v4h-5c-.552 0-1 .448-1 1v9h2v-8h4v2c0 1.103.897 2 2 2h22c1.103 0 2-.897 2-2v-2h4v24h2v-25c0-.552-.448-1-1-1h-5v-4h8v60h-42v-6h-2v7c0 .552.448 1 1 1h43c1.103 0 2-.897 2-2v-60c0-1.103-.897-2-2-2zm-10 10h-22v-8h22z" data-original="#000000" class="" data-old_color="#000000" style="fill:#000000"/><path d="m58 34h-2v14h-10c-.552 0-1 .448-1 1v9h-23v-2h-2v3c0 .552.448 1 1 1h25c.046 0 .092-.003.137-.009.01-.001.02-.003.03-.005.005-.001.01-.002.016-.003.007-.001.013-.003.019-.004.009-.002.018-.003.026-.006.003-.001.005-.001.008-.002.027-.007.054-.014.081-.023.001 0 .002-.001.003-.001.028-.009.056-.02.083-.032.001 0 .002-.001.002-.001.027-.012.054-.025.08-.04.001 0 .001-.001.002-.001.012-.007.025-.014.037-.022.005-.003.01-.006.015-.01.008-.005.016-.01.024-.016.004-.003.008-.006.012-.009.009-.006.017-.012.025-.018s.015-.012.023-.018c.005-.004.009-.007.014-.011.012-.01.024-.02.036-.031l11-10c.017-.015.033-.031.048-.047.004-.005.009-.009.013-.014.013-.014.026-.029.038-.044.002-.003.005-.005.007-.008.014-.017.027-.035.039-.052.004-.005.007-.01.011-.016.01-.014.019-.029.028-.044.003-.005.006-.009.008-.014.011-.019.021-.037.03-.057.003-.005.005-.011.008-.016.007-.015.014-.031.021-.047.002-.006.005-.011.007-.017.008-.02.015-.041.022-.062.001-.003.002-.006.003-.009.006-.019.011-.038.016-.057.001-.005.002-.01.004-.015.01-.044.017-.088.021-.133 0-.005.001-.011.001-.016.001-.018.002-.037.003-.056 0-.004 0-.009 0-.013 0-.002 0-.004 0-.006v-14.995zm-11 16h7.413l-4.856 4.415-2.557 2.324z" data-original="#000000" class="" data-old_color="#000000" style="fill:#000000"/><path d="m30 5h2v2h-2z" data-original="#000000" class="" data-old_color="#000000" style="fill:#000000"/><path d="m46 5h2v2h-2z" data-original="#000000" class="" data-old_color="#000000" style="fill:#000000"/><path d="m51 16h-23c-.552 0-1 .448-1 1v4h2v-3h21v14h-15v2h16c.552 0 1-.448 1-1v-16c0-.552-.448-1-1-1z" data-original="#000000" class="" data-old_color="#000000" style="fill:#000000"/><path d="m34 38h11v2h-11z" data-original="#000000" class="" data-old_color="#000000" style="fill:#000000"/><path d="m47 38h6v2h-6z" data-original="#000000" class="" data-old_color="#000000" style="fill:#000000"/><path d="m31 44h11v2h-11z" data-original="#000000" class="" data-old_color="#000000" style="fill:#000000"/><path d="m44 44h9v2h-9z" data-original="#000000" class="" data-old_color="#000000" style="fill:#000000"/><path d="m26 50h17v2h-17z" data-original="#000000" class="" data-old_color="#000000" style="fill:#000000"/><path d="m34 5h10v2h-10z" data-original="#000000" class="" data-old_color="#000000" style="fill:#000000"/><path d="m18 54c.211 0 .422-.066.6-.2l4.413-3.31c5.097-3.822 8.513-9.382 9.62-15.655l1.352-7.661c.075-.426-.132-.853-.514-1.056l-15-8c-.294-.157-.647-.157-.941 0l-15 8c-.382.204-.589.63-.514 1.056l1.341 7.607c1.096 6.217 4.469 11.744 9.496 15.564l4.543 3.452c.178.135.391.203.604.203zm-12.674-19.567-1.215-6.892 13.889-7.408 13.889 7.408-1.226 6.946c-1.018 5.771-4.161 10.886-8.85 14.403l-3.809 2.857-3.942-2.995c-4.625-3.514-7.727-8.599-8.736-14.319z" data-original="#000000" class="" data-old_color="#000000" style="fill:#000000"/><path d="m21.835 46.744c3.792-2.844 6.333-6.98 7.157-11.647l.992-5.618c.075-.426-.132-.853-.514-1.056l-5.002-2.668-.941 1.765 4.362 2.327-.866 4.903c-.735 4.166-3.003 7.857-6.387 10.396l-2.632 1.974-2.73-2.075c-3.338-2.536-5.577-6.206-6.305-10.334l-.859-4.865 4.361-2.326-.941-1.765-5.001 2.667c-.382.204-.589.63-.514 1.056l.983 5.578c.816 4.625 3.325 8.738 7.065 11.58l3.332 2.531c.179.136.392.204.605.204.211 0 .422-.066.6-.2z" data-original="#000000" class="" data-old_color="#000000" style="fill:#000000"/><path d="m17.999 24.572 3.531 1.883.941-1.765-4.002-2.134c-.294-.157-.647-.157-.941 0l-3.999 2.133.941 1.765z" data-original="#000000" class="" data-old_color="#000000" style="fill:#000000"/><path d="m16.962 40h.038c.288 0 .562-.124.752-.341l7-8-1.505-1.317-6.188 7.072-2.259-3.014-1.6 1.2 3 4c.181.241.461.388.762.4z" data-original="#000000" class="" data-old_color="#000000" style="fill:#000000"/><path d="m17 28h2v2h-2z" data-original="#000000" class="" data-old_color="#000000" style="fill:#000000"/><path d="m17 42h2v2h-2z" data-original="#000000" class="" data-old_color="#000000" style="fill:#000000"/></g> </svg>
