<svg id="Layer_3" enable-background="new 0 0 64 64" height="512" viewBox="0 0 64 64" width="512" xmlns="http://www.w3.org/2000/svg"><path d="m24 54h4v4h-4z" fill="#ccc"/><path d="m22 58h8v4h-8z" fill="#ba9b50"/><path d="m22 58h5v4h-5z" fill="#f8cf6a"/><path d="m24 38v-3l2-3 2 3v3" fill="#d6d6d6"/><path d="m24 38h4v4h-4z" fill="#999"/><path d="m22 54v-10l2-2h4l2 2v10z" fill="#ba9b50"/><path d="m25 42h-1l-2 2v10h5v-10z" fill="#f8cf6a"/><path d="m32 54h4v4h-4z" fill="#ccc"/><path d="m30 58h8v4h-8z" fill="#ba9b50"/><path d="m30 58h5v4h-5z" fill="#f8cf6a"/><path d="m32 38v-3l2-3 2 3v3" fill="#d6d6d6"/><path d="m32 38h4v4h-4z" fill="#999"/><path d="m30 54v-10l2-2h4l2 2v10z" fill="#ba9b50"/><path d="m33 42h-1l-2 2v10h5v-10z" fill="#f8cf6a"/><path d="m40 54h4v4h-4z" fill="#ccc"/><path d="m38 58h8v4h-8z" fill="#ba9b50"/><path d="m38 58h5v4h-5z" fill="#f8cf6a"/><path d="m40 38v-3l2-3 2 3v3" fill="#d6d6d6"/><path d="m40 38h4v4h-4z" fill="#999"/><path d="m38 54v-10l2-2h4l2 2v10z" fill="#ba9b50"/><path d="m41 42h-1l-2 2v10h5v-10z" fill="#f8cf6a"/><path d="m48 54h4v4h-4z" fill="#ccc"/><path d="m46 58h8v4h-8z" fill="#ba9b50"/><path d="m46 58h5v4h-5z" fill="#f8cf6a"/><path d="m48 38v-3l2-3 2 3v3" fill="#d6d6d6"/><path d="m48 38h4v4h-4z" fill="#999"/><path d="m46 54v-10l2-2h4l2 2v10z" fill="#ba9b50"/><path d="m49 42h-1l-2 2v10h5v-10z" fill="#f8cf6a"/><path d="m57 54h4v4h-4z" fill="#ccc"/><path d="m55 58h8v4h-8z" fill="#ba9b50"/><path d="m55 58h5v4h-5z" fill="#f8cf6a"/><path d="m57 38v-3l2-3 2 3v3" fill="#d6d6d6"/><path d="m57 38h4v4h-4z" fill="#999"/><path d="m55 54v-10l2-2h4l2 2v10z" fill="#ba9b50"/><path d="m58 42h-1l-2 2v10h5v-10z" fill="#f8cf6a"/><path d="m14 6c-6.627 0-12 5.373-12 12v18h12v-13c0-1.657 1.343-3 3-3h19c2.209 0 4-1.791 4-4v-2h-22c-2.209 0-4-1.791-4-4z" fill="#9b6d5b"/><path d="m2 32h12v4h-12z" fill="#999"/><path d="m2 28h4v-6h-4" fill="#999"/><path d="m62 14h-44c-2.209 0-4-1.791-4-4v-8h48z" fill="#737373"/><path d="m14 2v8c0 2.209 1.791 4 4 4h41v-12z" fill="#999"/><path d="m18 2h26v6h-26z" fill="#ba9b50"/><path d="m18 2h23v6h-23z" fill="#f8cf6a"/><path d="m62 15h-44c-2.757 0-5-2.243-5-5v-8c0-.553.448-1 1-1h48c.552 0 1 .447 1 1v12c0 .553-.448 1-1 1zm-47-12v7c0 1.654 1.346 3 3 3h43v-10z"/><path d="m14 37h-12c-.552 0-1-.447-1-1v-18c0-7.168 5.832-13 13-13v2c-6.065 0-11 4.935-11 11v17h10v-12c0-2.206 1.794-4 4-4h19c1.654 0 3-1.346 3-3v-2h2v2c0 2.757-2.243 5-5 5h-19c-1.103 0-2 .897-2 2v13c0 .553-.448 1-1 1z"/><path d="m19 29h-5v-2h5c1.103 0 2-.897 2-2v-5h2v5c0 2.206-1.794 4-4 4z"/><path d="m16 20.172h2v5.657h-2z" transform="matrix(.707 -.707 .707 .707 -11.284 18.757)"/><path d="m6 29h-4v-2h3v-4h-3v-2h4c.552 0 1 .447 1 1v6c0 .553-.448 1-1 1z"/><path d="m44 9h-26c-.552 0-1-.447-1-1v-6h2v5h24v-5h2v6c0 .553-.448 1-1 1z"/><path d="m2 31h12v2h-12z"/><path d="m30 63h-8c-.552 0-1-.447-1-1v-4c0-.553.448-1 1-1h8c.552 0 1 .447 1 1v4c0 .553-.448 1-1 1zm-7-2h6v-2h-6z"/><path d="m27 54h2v4h-2z"/><path d="m23 54h2v4h-2z"/><path d="m30 55h-8c-.552 0-1-.447-1-1v-10c0-.266.105-.52.293-.707l2-2c.187-.188.442-.293.707-.293h4c.265 0 .52.105.707.293l2 2c.188.187.293.441.293.707v10c0 .553-.448 1-1 1zm-7-2h6v-8.586l-1.414-1.414h-3.172l-1.414 1.414z"/><path d="m29 42h-2v-6.697l-1-1.5-1 1.5v6.697h-2v-7c0-.197.059-.391.168-.555l2-3c.371-.557 1.293-.557 1.664 0l2 3c.109.164.168.358.168.555z"/><path d="m24 37h4v2h-4z"/><path d="m38 63h-8c-.552 0-1-.447-1-1v-4c0-.553.448-1 1-1h8c.552 0 1 .447 1 1v4c0 .553-.448 1-1 1zm-7-2h6v-2h-6z"/><path d="m35 54h2v4h-2z"/><path d="m31 54h2v4h-2z"/><path d="m38 55h-8c-.552 0-1-.447-1-1v-10c0-.266.105-.52.293-.707l2-2c.187-.188.442-.293.707-.293h4c.265 0 .52.105.707.293l2 2c.188.187.293.441.293.707v10c0 .553-.448 1-1 1zm-7-2h6v-8.586l-1.414-1.414h-3.172l-1.414 1.414z"/><path d="m37 42h-2v-6.697l-1-1.5-1 1.5v6.697h-2v-7c0-.197.059-.391.168-.555l2-3c.371-.557 1.293-.557 1.664 0l2 3c.109.164.168.358.168.555z"/><path d="m32 37h4v2h-4z"/><path d="m46 63h-8c-.552 0-1-.447-1-1v-4c0-.553.448-1 1-1h8c.552 0 1 .447 1 1v4c0 .553-.448 1-1 1zm-7-2h6v-2h-6z"/><path d="m43 54h2v4h-2z"/><path d="m39 54h2v4h-2z"/><path d="m46 55h-8c-.552 0-1-.447-1-1v-10c0-.266.105-.52.293-.707l2-2c.187-.188.442-.293.707-.293h4c.265 0 .52.105.707.293l2 2c.188.187.293.441.293.707v10c0 .553-.448 1-1 1zm-7-2h6v-8.586l-1.414-1.414h-3.172l-1.414 1.414z"/><path d="m45 42h-2v-6.697l-1-1.5-1 1.5v6.697h-2v-7c0-.197.059-.391.168-.555l2-3c.371-.557 1.293-.557 1.664 0l2 3c.109.164.168.358.168.555z"/><path d="m40 37h4v2h-4z"/><path d="m54 63h-8c-.552 0-1-.447-1-1v-4c0-.553.448-1 1-1h8c.552 0 1 .447 1 1v4c0 .553-.448 1-1 1zm-7-2h6v-2h-6z"/><path d="m51 54h2v4h-2z"/><path d="m47 54h2v4h-2z"/><path d="m54 55h-8c-.552 0-1-.447-1-1v-10c0-.266.105-.52.293-.707l2-2c.187-.188.442-.293.707-.293h4c.265 0 .52.105.707.293l2 2c.188.187.293.441.293.707v10c0 .553-.448 1-1 1zm-7-2h6v-8.586l-1.414-1.414h-3.172l-1.414 1.414z"/><path d="m53 42h-2v-6.697l-1-1.5-1 1.5v6.697h-2v-7c0-.197.059-.391.168-.555l2-3c.371-.557 1.293-.557 1.664 0l2 3c.109.164.168.358.168.555z"/><path d="m48 37h4v2h-4z"/><path d="m62 63h-8c-.552 0-1-.447-1-1v-4c0-.553.448-1 1-1h8c.552 0 1 .447 1 1v4c0 .553-.448 1-1 1zm-7-2h6v-2h-6z"/><path d="m59 54h2v4h-2z"/><path d="m55 54h2v4h-2z"/><path d="m62 55h-8c-.552 0-1-.447-1-1v-10c0-.266.105-.52.293-.707l2-2c.187-.188.442-.293.707-.293h4c.265 0 .52.105.707.293l2 2c.188.187.293.441.293.707v10c0 .553-.448 1-1 1zm-7-2h6v-8.586l-1.414-1.414h-3.172l-1.414 1.414z"/><path d="m61 42h-2v-6.697l-1-1.5-1 1.5v6.697h-2v-7c0-.197.059-.391.168-.555l2-3c.371-.557 1.293-.557 1.664 0l2 3c.109.164.168.358.168.555z"/><path d="m56 37h4v2h-4z"/></svg>