<?xml version="1.0"?>
<svg xmlns="http://www.w3.org/2000/svg" viewBox="0 0 64 64" width="512" height="512"><g id="Fill_Outline" data-name="Fill Outline"><path d="M16.5,19H7A13.548,13.548,0,0,0,7,37H17Z" style="fill:#fbb03b"/><path d="M14,55h5a2,2,0,0,0,2-2V50.828a2,2,0,0,0-.586-1.414l-.828-.828A2,2,0,0,1,19,47.172V37H12.958V55Z" style="fill:#ed1c24"/><path d="M9,37V53a2,2,0,0,0,2,2h4a2,2,0,0,0,2-2V50.828a2,2,0,0,0-.586-1.414l-.828-.828A2,2,0,0,1,15,47.172V37Z" style="fill:#f15a24"/><path d="M45,50l-5.584-3.473a51.425,51.425,0,0,0-22.683-9.462L16.316,37h0a18.645,18.645,0,0,1,0-18h0l.417-.065A51.425,51.425,0,0,0,39.416,9.473L45,6" style="fill:#d4eded"/><path d="M49,6H45.112c-3.29,0-5.958,9.85-5.958,22s2.668,22,5.958,22H49" style="fill:#c0e5e7"/><ellipse cx="49" cy="28" rx="6" ry="22" style="fill:#acdee0"/><path d="M59.013,24q-2.062,0-4.12-.135C54.962,25.205,55,26.586,55,28s-.038,2.8-.107,4.135Q56.95,32,59.013,32h0V24Z" style="fill:#fbb03b"/><path d="M54.893,23.865a64.2,64.2,0,0,1-11.529-1.8l-.138-.041C43.08,23.922,43,25.926,43,28s.08,4.087.227,5.993l.137-.053a64.112,64.112,0,0,1,11.529-1.8C54.962,30.8,55,29.414,55,28S54.962,25.205,54.893,23.865Z" style="fill:#fbb03b"/><ellipse cx="59" cy="28" rx="2" ry="4" style="fill:#f15a24"/></g><g id="Outline"><path d="M62,28c0-2.843-1.283-4.986-2.986-5v0c-1.059,0-2.118-.034-3.175-.087C55.3,14.421,53.22,5,49,5H45.112a3.32,3.32,0,0,0-2.461,1.284L38.822,8.668A50.634,50.634,0,0,1,16.58,17.947l-.417.065a.989.989,0,0,0-.163.065V18H7a1,1,0,0,0-.748.336,14.551,14.551,0,0,0,0,19.328A1,1,0,0,0,7,38H8V53a3,3,0,0,0,3,3h8a3,3,0,0,0,3-3V50.828a2.978,2.978,0,0,0-.879-2.121l-.828-.828A1.009,1.009,0,0,1,20,47.172V38.718a50.855,50.855,0,0,1,18.888,8.659l3.766,2.342A3.317,3.317,0,0,0,45.112,51H49c4.22,0,6.3-9.421,6.839-17.913C56.9,33.034,57.955,33,59.014,33v0C60.717,32.985,62,30.842,62,28ZM43.883,48.128c-1.8-2.42-3.729-9.753-3.729-20.128s1.923-17.7,3.728-20.126L45.286,7h.673C43.35,10.8,42,19.437,42,28s1.35,17.2,3.959,21h-.673ZM44,28c0-1.658.051-3.235.142-4.73A65.115,65.115,0,0,0,56.6,24.95a8,8,0,0,0,0,6.1,65.115,65.115,0,0,0-12.462,1.68C44.051,31.235,44,29.658,44,28Zm9.822-5.221a63.072,63.072,0,0,1-9.53-1.528C45.088,12.381,47.347,7,49,7,50.631,7,53.133,12.483,53.822,22.779ZM5.624,33H8V31H4.948a12.6,12.6,0,0,1-.327-2H8V27H4.621a12.6,12.6,0,0,1,.327-2H8V23H5.624a12.517,12.517,0,0,1,1.835-3H14.71a19.483,19.483,0,0,0,0,16H7.459A12.517,12.517,0,0,1,5.624,33ZM14,54H11a1,1,0,0,1-1-1V38h4v9.172a2.978,2.978,0,0,0,.879,2.121l.828.828a1.009,1.009,0,0,1,.293.707V53a1,1,0,0,1-1,1Zm4.879-4.707.828.828a1.009,1.009,0,0,1,.293.707V53a1,1,0,0,1-1,1H17.816A2.966,2.966,0,0,0,18,53V50.828a2.978,2.978,0,0,0-.879-2.121l-.828-.828A1.009,1.009,0,0,1,16,47.172V38h.239l.341.053c.476.073.946.177,1.42.265v8.854A2.978,2.978,0,0,0,18.879,49.293Zm21.132-3.57A52.647,52.647,0,0,0,17,36.1V36h-.08a17.527,17.527,0,0,1,.042-16.088,52.545,52.545,0,0,0,22.983-9.59l.72-.447c-1.658,4.432-2.511,11.3-2.511,18.125s.853,13.7,2.512,18.13ZM49,49c-1.653,0-3.912-5.381-4.708-14.251a63.072,63.072,0,0,1,9.53-1.528C53.133,43.517,50.631,49,49,49ZM59,31c-.249,0-1-1.064-1-3s.751-3,1-3,1,1.064,1,3S59.249,31,59,31Z"/></g></svg>
