<?xml version="1.0" encoding="utf-8"?>
<!-- Generator: Adobe Illustrator 16.0.0, SVG Export Plug-In . SVG Version: 6.00 Build 0)  -->
<!DOCTYPE svg PUBLIC "-//W3C//DTD SVG 1.1//EN" "http://www.w3.org/Graphics/SVG/1.1/DTD/svg11.dtd">
<svg version="1.1" id="Layer_1" xmlns="http://www.w3.org/2000/svg" xmlns:xlink="http://www.w3.org/1999/xlink" x="0px" y="0px"
	 width="512px" height="512px" viewBox="0 0 512 512" enable-background="new 0 0 512 512" xml:space="preserve">
<path fill="#D4D4D5" d="M303.38,12.414C290.738,9.208,277.504,7.5,263.878,7.5c-69.776,0-129.126,44.596-151.133,106.835v0.007
	C55.395,115.102,7.5,161.952,7.5,221.195c0,59.01,47.837,106.847,106.847,106.847h227.356L303.38,12.414z"/>
<path fill="#EFEDEE" d="M424.126,167.767C424.122,92.72,372.671,29.988,303.38,12.414
	c-69.387,17.617-120.719,80.491-120.719,155.359c0,88.107,71.092,159.6,159.042,160.269h82.662
	c44.258,0,80.135-35.878,80.135-80.136C504.5,203.069,467.856,167.533,424.126,167.767z"/>
<path d="M431.472,160.537C427.668,71.371,353.947,0,263.877,0C194.618,0,132.4,42.802,107.456,107.029
	C48.539,110.467,0,159.398,0,221.195c0,45.752,27.16,87,69.193,105.084c3.805,1.638,8.216-0.12,9.854-3.926
	c1.637-3.807-0.121-8.218-3.926-9.854C38.599,296.787,15,260.948,15,221.195c0-64.643,61.757-113.095,125.336-95.916
	c0.655,0.177,1.313,0.262,1.961,0.262c3.305,0,6.333-2.202,7.236-5.545c1.081-3.999-1.285-8.116-5.284-9.197
	c-6.744-1.822-13.664-3.005-20.661-3.566C147.577,51.665,202.707,15,263.877,15c81.832,0,148.836,64.699,152.576,145.639
	c-1.624,0.145-3.244,0.321-4.846,0.555c-4.101,0.598-6.938,4.406-6.34,8.504c0.601,4.107,4.415,6.937,8.506,6.338
	c44.419-6.481,83.227,28.018,83.227,71.87c0,40.051-32.584,72.636-72.636,72.636H114.348c-4.153,0-8.331-0.259-12.417-0.769
	c-4.112-0.506-7.858,2.404-8.37,6.517c-0.512,4.11,2.405,7.856,6.516,8.369c4.698,0.585,9.499,0.882,14.27,0.883h310.017
	c48.32,0,87.636-39.313,87.636-87.636C512,201.914,476.469,164.083,431.472,160.537L431.472,160.537z"/>
<g>
	<circle fill="#D4D4D5" cx="389" cy="458.662" r="22.5"/>
	<circle fill="#D4D4D5" cx="109" cy="404.662" r="22.5"/>
	<circle fill="#D4D4D5" cx="375.998" cy="372.162" r="30"/>
	<circle fill="#D4D4D5" cx="288.5" cy="482.5" r="15"/>
	<circle fill="#D4D4D5" cx="219.561" cy="444.662" r="15"/>
</g>
<path d="M389,428.662c-16.542,0-30,13.458-30,30s13.458,30,30,30s30-13.458,30-30S405.542,428.662,389,428.662z M389,473.662
	c-8.271,0-15-6.729-15-15c0-8.271,6.729-15,15-15s15,6.729,15,15C404,466.933,397.271,473.662,389,473.662z"/>
<path d="M109,374.662c-16.542,0-30,13.458-30,30s13.458,30,30,30s30-13.458,30-30S125.542,374.662,109,374.662z M109,419.662
	c-8.271,0-15-6.729-15-15s6.729-15,15-15s15,6.729,15,15S117.271,419.662,109,419.662z"/>
<path d="M413.498,372.162c0-20.678-16.822-37.5-37.5-37.5s-37.5,16.822-37.5,37.5s16.822,37.5,37.5,37.5
	S413.498,392.84,413.498,372.162z M353.499,372.162c0-12.406,10.093-22.5,22.5-22.5s22.5,10.094,22.5,22.5s-10.093,22.5-22.5,22.5
	S353.499,384.568,353.499,372.162z"/>
<path d="M288.5,460c-12.407,0-22.5,10.094-22.5,22.5s10.093,22.5,22.5,22.5s22.5-10.094,22.5-22.5S300.907,460,288.5,460z
	 M288.5,490c-4.137,0-7.5-3.364-7.5-7.5s3.363-7.5,7.5-7.5s7.5,3.364,7.5,7.5S292.637,490,288.5,490z"/>
<path d="M219.561,422.162c-12.407,0-22.5,10.094-22.5,22.5s10.093,22.5,22.5,22.5c12.407,0,22.5-10.094,22.5-22.5
	S231.967,422.162,219.561,422.162z M219.561,452.162c-4.136,0-7.5-3.364-7.5-7.5s3.364-7.5,7.5-7.5c4.136,0,7.5,3.364,7.5,7.5
	S223.696,452.162,219.561,452.162z"/>
</svg>
