<?xml version="1.0" encoding="utf-8"?>
<!-- Generator: Adobe Illustrator 16.0.0, SVG Export Plug-In . SVG Version: 6.00 Build 0)  -->
<!DOCTYPE svg PUBLIC "-//W3C//DTD SVG 1.1//EN" "http://www.w3.org/Graphics/SVG/1.1/DTD/svg11.dtd">
<svg version="1.1" id="Layer_1" xmlns="http://www.w3.org/2000/svg" xmlns:xlink="http://www.w3.org/1999/xlink" x="0px" y="0px"
	 width="512px" height="512px" viewBox="0 0 512 512" enable-background="new 0 0 512 512" xml:space="preserve">
<path fill="#FFB357" d="M284.255,369.132h-15.827c9.055-8.438,35.533-33.114,44.512-41.481l-43.151-43.15l-86.144,92.438
	c-4.369,4.709-7.008,11.039-6.924,17.971c0.175,14.337,11.94,25.818,26.277,25.643h25.307l-54.707,67.325
	c-3.295,4.055-2.991,9.944,0.703,13.638c3.689,3.689,9.567,3.998,13.622,0.717l111.222-90.004c5.337-4.362,8.862-11.039,8.952-18.47
	C308.26,380.428,297.585,369.295,284.255,369.132L284.255,369.132z"/>
<path fill="#FCE3A0" d="M138.319,352.204h-10.791c6.174-5.754,24.227-22.578,30.348-28.283l-29.42-29.421l-58.735,63.025
	c-2.979,3.211-4.778,7.527-4.721,12.252c0.119,9.777,8.141,17.604,17.916,17.484h17.255l-37.3,45.903
	c-2.246,2.765-2.039,6.78,0.479,9.299c2.515,2.516,6.523,2.727,9.288,0.488l75.833-61.366c3.638-2.975,6.042-7.525,6.104-12.593
	C154.686,359.905,147.408,352.314,138.319,352.204L138.319,352.204z"/>
<path fill="#FFF1D4" d="M405.112,349.307h-8.94c5.115-4.768,20.071-18.705,25.144-23.433L396.94,301.5l-48.661,52.215
	c-2.469,2.66-3.959,6.236-3.911,10.151c0.099,8.099,6.745,14.584,14.843,14.485h14.296l-30.903,38.029
	c-1.86,2.29-1.689,5.617,0.397,7.704c2.084,2.084,5.404,2.258,7.695,0.405l62.825-50.84c3.015-2.465,5.007-6.235,5.058-10.434
	C418.672,355.688,412.642,349.398,405.112,349.307L405.112,349.307z"/>
<path fill="#B9BBBC" d="M303.38,12.414C290.738,9.208,277.504,7.5,263.878,7.5c-69.776,0-129.126,44.596-151.133,106.835v0.007
	C55.395,115.102,7.5,161.952,7.5,221.195c0,59.01,47.837,106.847,106.847,106.847h227.356L303.38,12.414z"/>
<path fill="#D4D4D5" d="M424.126,167.767C424.122,92.72,372.671,29.988,303.38,12.414
	c-69.387,17.617-120.719,80.491-120.719,155.359c0,88.107,71.092,159.6,159.042,160.269h82.662
	c44.258,0,80.135-35.878,80.135-80.136C504.5,203.069,467.856,167.533,424.126,167.767z"/>
<path d="M424.364,335.542c48.321,0,87.636-39.313,87.636-87.636c0-45.992-35.531-83.823-80.528-87.369
	C427.668,71.371,353.947,0,263.877,0c-69.259,0-131.476,42.802-156.421,107.029c-27.965,1.631-54.128,13.417-74.153,33.515
	C11.828,162.099,0,190.741,0,221.194c0,52.482,35.542,96.813,83.818,110.203l-19.596,21.028c-4.261,4.593-6.764,10.646-6.722,17.444
	c0.174,14.181,12.12,25.16,25.489,24.893h1.424l-27.364,33.677c-4.599,5.662-4.317,14.014,1,19.33
	c5.342,5.34,13.682,5.565,19.308,1.015l75.863-61.391c14.986-12.254,10.017-35.787-7.87-41.545l11.058-10.306h55.561l-33.823,36.294
	c-5.633,6.072-8.978,14.091-8.925,23.163c0.223,18.226,15.23,33.054,33.454,33.054l9.873-0.002l-44.77,55.095
	c-5.608,6.905-5.317,17.137,1.22,23.672c3.342,3.343,7.787,5.184,12.516,5.184c4.036,0,7.987-1.398,11.129-3.939l111.25-90.027
	c2.562-2.095,4.775-4.566,6.583-7.349c2.258-3.473,1.271-8.117-2.201-10.375c-3.474-2.259-8.119-1.271-10.375,2.201
	c-0.963,1.481-2.142,2.797-3.473,3.887L183.208,496.4c-1.081,0.875-2.633,0.781-3.604-0.189c-0.964-0.964-1.066-2.519-0.185-3.604
	l54.707-67.324c1.824-2.245,2.195-5.34,0.951-7.952c-1.243-2.613-3.878-4.277-6.772-4.277H202.93l-0.255,0.003
	c-9.84,0-18.387-7.945-18.456-18.47c0-4.668,1.749-9.124,4.913-12.534l43.342-46.508h19.023c4.142,0,7.5-3.357,7.5-7.5
	s-3.358-7.5-7.5-7.5h-137.15c-54.78,0-99.347-44.566-99.347-99.348c0-64.629,61.745-113.103,125.336-95.915
	c4.022,1.085,8.122-1.306,9.197-5.283c1.081-3.999-1.285-8.116-5.284-9.197c-6.744-1.823-13.664-3.005-20.661-3.566
	C147.577,51.665,202.707,15,263.877,15c81.832,0,148.836,64.7,152.576,145.639c-1.625,0.145-3.245,0.321-4.847,0.555
	c-4.1,0.599-6.937,4.406-6.338,8.505c0.6,4.098,4.406,6.937,8.506,6.337c3.475-0.507,7.037-0.765,10.59-0.765
	c0.038,0,0.074-0.005,0.111-0.006h0.077c39.947,0,72.446,32.587,72.446,72.641c0,40.052-32.584,72.636-72.636,72.636H281.568
	c-4.143,0-7.5,3.356-7.5,7.5s3.357,7.5,7.5,7.5h11.902l-30.156,28.104c-2.254,2.101-2.994,5.365-1.865,8.233
	c1.129,2.867,3.896,4.752,6.979,4.752l15.735-0.001c5.042,0.063,9.737,2.424,12.884,6.479c2.54,3.273,7.252,3.865,10.523,1.328
	c3.271-2.541,3.867-7.252,1.328-10.523c-5.339-6.881-13.07-11.189-21.613-12.102l28.188-26.271h39.491l-12.183,13.072
	c-4.009,4.321-6.01,9.893-5.912,15.397c0.171,11.629,9.426,21.154,20.907,21.805l-20.993,25.836
	c-4.178,5.141-4.008,12.803,0.915,17.736c4.891,4.89,12.543,5.118,17.716,0.932l62.857-50.864
	c12.287-10.05,9.652-29.481-4.948-35.882l8.619-8.032H424.364z M134.406,335.542l-11.99,11.174
	c-2.255,2.103-2.995,5.367-1.866,8.234c1.129,2.868,3.897,4.753,6.979,4.753l10.699-0.001c8.355,0.104,12.025,10.737,5.526,16.054
	l-71.748,58.062l33.986-41.825c3.974-4.891,0.484-12.229-5.821-12.229H82.917c-0.066,0-0.154,0-0.22,0.002
	c-8.908,0-13.474-10.673-7.489-17.125l25.964-27.861C109.508,335.738,112.966,335.542,134.406,335.542L134.406,335.542z
	 M389.193,352.055c1.129,2.867,3.896,4.752,6.979,4.752h8.851c5.577,0.067,8.312,7.31,3.783,11.014l-49.865,40.353l20.388-25.091
	c1.825-2.245,2.195-5.34,0.952-7.953c-1.244-2.611-3.879-4.275-6.772-4.275h-14.295c-0.04,0-0.144,0-0.184,0
	c-6.184,0-9.494-7.461-5.264-12.023l21.701-23.286h24.475l-8.884,8.278C388.804,345.922,388.064,349.188,389.193,352.055
	L389.193,352.055z"/>
</svg>
