<?xml version="1.0" encoding="utf-8"?>
<!-- Generator: Adobe Illustrator 16.0.0, SVG Export Plug-In . SVG Version: 6.00 Build 0)  -->
<!DOCTYPE svg PUBLIC "-//W3C//DTD SVG 1.1//EN" "http://www.w3.org/Graphics/SVG/1.1/DTD/svg11.dtd">
<svg version="1.1" id="Layer_1" xmlns="http://www.w3.org/2000/svg" xmlns:xlink="http://www.w3.org/1999/xlink" x="0px" y="0px"
	 width="512px" height="512px" viewBox="0 0 512 512" enable-background="new 0 0 512 512" xml:space="preserve">
<path fill="#D4D4D5" d="M303.38,12.414C290.738,9.208,277.504,7.5,263.878,7.5c-69.776,0-129.126,44.596-151.133,106.835v0.007
	C55.395,115.102,7.5,161.952,7.5,221.195c0,59.01,47.837,106.847,106.847,106.847h227.356L303.38,12.414z"/>
<path fill="#EFEDEE" d="M424.126,167.767C424.122,92.72,372.671,29.988,303.38,12.414
	c-69.387,17.617-120.719,80.491-120.719,155.359c0,88.107,71.092,159.6,159.042,160.269h82.662
	c44.258,0,80.135-35.878,80.135-80.136C504.5,203.069,467.856,167.533,424.126,167.767z"/>
<path fill="#B9F0FF" d="M254.016,360.596l-0.035-0.035c-3.431-3.371-8.978-3.357-12.389,0.035
	c-21.107,20.991-50.348,58.073-50.348,87.705v0.002h0.035c0,31.931,25.438,56.197,56.523,56.197
	c31.231,0.002,56.526-25.165,56.526-56.198h0.035C304.362,418.049,275.454,381.918,254.016,360.596L254.016,360.596z"/>
<path fill="#7CE3FF" d="M119.818,387.841l-0.021-0.021c-2.109-2.072-5.517-2.064-7.613,0.021
	c-12.97,12.899-30.939,35.688-30.939,53.896v0.001h0.021c0,19.621,15.632,34.532,34.734,34.532
	c19.192,0.002,34.736-15.464,34.736-34.533h0.021C150.756,423.146,132.992,400.943,119.818,387.841z"/>
<path fill="#7CE3FF" d="M392.943,359.96l-0.026-0.026c-2.577-2.533-6.743-2.521-9.305,0.026
	c-15.853,15.767-37.815,43.617-37.815,65.872v0.002h0.026c0,23.982,19.105,42.208,42.453,42.208
	c23.457,0.002,42.455-18.901,42.455-42.208h0.025C430.756,403.111,409.044,375.975,392.943,359.96L392.943,359.96z"/>
<path d="M431.472,160.537C427.668,71.371,353.947,0,263.877,0C194.618,0,132.4,42.802,107.456,107.029
	C48.539,110.467,0,159.398,0,221.195c0,45.752,27.16,87,69.193,105.084c3.805,1.638,8.216-0.12,9.854-3.926
	c1.637-3.806-0.121-8.217-3.926-9.854C38.599,296.787,15,260.948,15,221.195c0-64.643,61.757-113.095,125.336-95.916
	c0.655,0.177,1.313,0.262,1.961,0.262c3.305,0,6.333-2.202,7.236-5.545c1.081-3.999-1.285-8.116-5.284-9.197
	c-6.744-1.822-13.664-3.005-20.661-3.566C147.577,51.665,202.707,15,263.877,15c81.832,0,148.836,64.699,152.576,145.639
	c-1.624,0.145-3.244,0.321-4.846,0.555c-4.1,0.598-6.938,4.406-6.339,8.504c0.6,4.107,4.415,6.937,8.505,6.338
	c44.419-6.481,83.227,28.018,83.227,71.87c0,40.051-32.584,72.636-72.636,72.636H114.348c-4.153,0-8.331-0.259-12.417-0.769
	c-4.112-0.506-7.858,2.405-8.37,6.517c-0.512,4.11,2.405,7.856,6.516,8.369c4.698,0.585,9.499,0.882,14.27,0.883h310.017
	c48.321,0,87.636-39.313,87.636-87.636C512,201.914,476.469,164.083,431.472,160.537L431.472,160.537z"/>
<path d="M304.408,455.245c-4.009-1.051-8.106,1.349-9.155,5.355C289.643,482.032,270.13,497,247.802,497
	c-27.49,0-49.023-21.39-49.023-48.697c0-0.223-0.01-0.441-0.029-0.66c0.44-25.414,26.116-59.834,48.133-81.729
	c0.498-0.495,1.337-0.497,1.845,0.001c11.322,11.261,38.489,40.521,46.188,68.95c1.083,3.997,5.2,6.359,9.2,5.277
	c3.999-1.083,6.361-5.201,5.278-9.199c-8.647-31.931-37.91-63.552-50.156-75.73c-6.354-6.246-16.597-6.239-22.934,0.065
	c-12.33,12.263-52.56,55.211-52.56,93.025c0,0.258,0.013,0.515,0.039,0.767C184.18,484.42,212.157,512,247.802,512
	c29.146,0,54.625-19.574,61.962-47.6C310.813,460.393,308.416,456.294,304.408,455.245L304.408,455.245z"/>
<path d="M125.053,382.471c-5.022-4.936-13.167-4.91-18.159,0.053c-7.777,7.733-33.151,34.86-33.151,59.215
	c0,0.21,0.009,0.419,0.026,0.625c0.324,23.271,18.756,41.407,42.229,41.407h0.003c11.274,0,21.876-4.366,29.851-12.297
	c7.835-7.792,12.216-18.106,12.378-29.105c0.017-0.208,0.026-0.418,0.026-0.63c0-23.659-23.127-49.24-33.115-59.178
	C125.112,382.529,125.083,382.499,125.053,382.471z M143.235,441.737c0,7.213-2.827,13.997-7.959,19.101
	c-5.145,5.116-11.989,7.935-19.274,7.935c0,0-0.001,0-0.002,0c-15.271,0-27.234-11.875-27.234-27.033
	c0-0.165-0.005-0.328-0.016-0.49c0.322-14.183,14.5-33.55,27.252-46.604c13.289,13.574,26.938,32.422,27.25,46.6
	C143.24,441.406,143.235,441.571,143.235,441.737L143.235,441.737z"/>
<path d="M398.173,354.584c-5.49-5.395-14.395-5.367-19.851,0.059c-9.391,9.338-40.025,42.069-40.025,71.191
	c0,0.225,0.01,0.448,0.029,0.668c0.348,27.554,22.162,49.039,49.948,49.039h0.005c27.657,0,49.584-22.154,49.945-49.022
	c0.021-0.226,0.031-0.454,0.031-0.687c0-28.325-27.991-59.223-40.024-71.191C398.212,354.624,398.185,354.596,398.173,354.584
	L398.173,354.584z M423.23,425.833c0,19.174-15.617,34.708-34.952,34.708c-0.001,0-0.002,0-0.003,0
	c-19.601,0-34.953-15.246-34.953-34.708c0-0.184-0.007-0.367-0.021-0.548c0.364-18.279,18.854-43.189,34.976-59.387
	c16.854,16.922,34.612,41.119,34.974,59.37C423.237,425.457,423.23,425.645,423.23,425.833L423.23,425.833z"/>
</svg>
