<?xml version="1.0" encoding="utf-8"?>
<!-- Generator: Adobe Illustrator 16.0.0, SVG Export Plug-In . SVG Version: 6.00 Build 0)  -->
<!DOCTYPE svg PUBLIC "-//W3C//DTD SVG 1.1//EN" "http://www.w3.org/Graphics/SVG/1.1/DTD/svg11.dtd">
<svg version="1.1" id="Layer_1" xmlns="http://www.w3.org/2000/svg" xmlns:xlink="http://www.w3.org/1999/xlink" x="0px" y="0px"
	 width="512px" height="512px" viewBox="0 0 512 512" enable-background="new 0 0 512 512" xml:space="preserve">
<path fill="#D4D4D5" d="M303.38,12.414C290.738,9.208,277.504,7.5,263.878,7.5c-69.776,0-129.126,44.596-151.133,106.835v0.007
	C55.395,115.102,7.5,161.952,7.5,221.195c0,59.01,47.837,106.847,106.847,106.847h227.356L303.38,12.414z"/>
<path fill="#EFEDEE" d="M424.126,167.767C424.122,92.72,372.671,29.988,303.38,12.414
	c-69.387,17.617-120.719,80.491-120.719,155.359c0,88.107,71.092,159.6,159.042,160.269h82.662
	c44.258,0,80.135-35.878,80.135-80.136C504.5,203.069,467.856,167.533,424.126,167.767z"/>
<path fill="#B9F0FF" d="M216.774,328.042l4.393-4.394c5.858-5.857,5.858-15.355,0-21.213c-5.857-5.857-15.355-5.857-21.213,0
	l-10.606,10.605h-8.787v-8.787l10.606-10.605c5.858-5.857,5.858-15.355,0-21.213c-5.857-5.857-15.355-5.857-21.213,0l-4.394,4.394
	l-4.394-4.394c-5.857-5.857-15.355-5.857-21.213,0c-5.858,5.856-5.858,15.354,0,21.213l10.606,10.605v8.787h-8.787l-10.606-10.605
	c-5.857-5.857-15.355-5.857-21.213,0c-5.858,5.856-5.858,15.354,0,21.213l4.393,4.394l-4.393,4.394
	c-5.858,5.857-5.858,15.355,0,21.213c2.929,2.93,6.768,4.395,10.606,4.395s7.678-1.465,10.606-4.395l10.606-10.605h8.787v8.787
	l-10.606,10.605c-5.858,5.857-5.858,15.355,0,21.213c5.857,5.857,15.355,5.857,21.213,0l4.394-4.394l4.394,4.394
	c2.929,2.93,6.768,4.395,10.606,4.395s7.678-1.465,10.606-4.395c5.858-5.856,5.858-15.354,0-21.213l-10.606-10.605v-8.787h8.787
	l10.606,10.605c2.929,2.93,6.768,4.395,10.606,4.395s7.678-1.465,10.606-4.395c5.858-5.856,5.858-15.354,0-21.213L216.774,328.042z"
	/>
<path fill="#7CE3FF" d="M495.714,421.831l4.394-4.394c5.857-5.857,5.857-15.355,0-21.213s-15.355-5.857-21.214,0l-10.605,10.605
	H459.5v-8.787l10.606-10.605c5.857-5.857,5.857-15.355,0-21.213s-15.355-5.857-21.214,0l-4.394,4.394l-4.395-4.394
	c-5.856-5.857-15.354-5.857-21.213,0c-5.857,5.856-5.857,15.354,0,21.213l10.606,10.605v8.787h-8.787l-10.606-10.605
	c-5.856-5.857-15.354-5.857-21.213,0c-5.857,5.856-5.857,15.354,0,21.213l4.394,4.394l-4.394,4.394
	c-5.857,5.857-5.857,15.355,0,21.214c2.93,2.929,6.769,4.394,10.606,4.394s7.678-1.465,10.605-4.394l10.606-10.606h8.787v8.787
	l-10.606,10.605c-5.857,5.857-5.857,15.355,0,21.214c5.857,5.856,15.355,5.856,21.213,0l4.395-4.395l4.394,4.395
	c2.93,2.929,6.769,4.394,10.606,4.394s7.678-1.465,10.605-4.394c5.858-5.857,5.858-15.355,0-21.214L459.5,445.618v-8.787h8.787
	l10.605,10.605c2.93,2.93,6.769,4.395,10.606,4.395s7.678-1.465,10.605-4.395c5.858-5.856,5.858-15.354,0-21.213L495.714,421.831z"
	/>
<path d="M196.47,388.952c7.005-7.007,8.345-17.347,4.418-25.582c8.169,3.894,18.522,2.641,25.582-4.418
	c6.219-6.22,8.163-15.284,5.296-23.41h192.598c48.321,0,87.636-39.313,87.636-87.636c0-18.434-5.651-36.06-16.342-50.974
	c-2.414-3.368-7.103-4.137-10.466-1.726c-3.366,2.413-4.14,7.099-1.727,10.466C492.32,218.022,497,232.627,497,247.906
	c0,40.052-32.584,72.636-72.636,72.636H231.766c2.864-8.116,0.93-17.183-5.296-23.41c-6.908-6.907-17.23-8.374-25.589-4.403
	c3.906-8.178,2.648-18.537-4.411-25.597c-8.475-8.474-22.086-8.762-30.91-0.86c-8.823-7.899-22.434-7.613-30.91,0.86
	c-7.044,7.045-8.325,17.404-4.412,25.597c-8.358-3.975-18.68-2.504-25.588,4.403c-5.971,5.972-7.936,14.485-5.69,22.218
	C51.461,311.932,15,270.743,15,221.195c0-54.068,43.893-98.639,97.844-99.354c3.288-0.043,6.059-2.203,7.03-5.171
	C141.458,55.852,199.306,15,263.877,15c84.221,0,152.744,68.531,152.749,152.767c0,3.774,2.864,7.512,7.928,7.499
	c13.985,0.001,27.597,4.051,39.36,11.713c3.471,2.258,8.116,1.28,10.378-2.192c2.26-3.471,1.278-8.117-2.192-10.378
	c-12.258-7.982-26.183-12.719-40.628-13.868C427.669,71.374,353.947,0,263.877,0c-69.259,0-131.476,42.802-156.421,107.029
	c-27.965,1.631-54.128,13.417-74.153,33.515C11.827,162.099,0,190.741,0,221.195c0,58.091,43.543,106.201,99.705,113.412
	c-6.041,14.943,5.063,30.935,20.856,30.935c3.402,0,6.689-0.75,9.672-2.172c-3.926,8.235-2.587,18.575,4.418,25.582
	c8.476,8.476,22.086,8.762,30.909,0.86C174.34,397.686,187.921,397.5,196.47,388.952L196.47,388.952z M170.864,373.951
	c-2.93-2.93-7.678-2.928-10.606,0l-4.394,4.395c-4.713,4.715-12.803,1.35-12.803-5.304c0-2.003,0.78-3.888,2.197-5.304
	l10.606-10.605c1.407-1.406,2.197-3.314,2.197-5.304v-8.787c0-4.144-3.358-7.5-7.5-7.5h-8.787c-1.989,0-3.897,0.79-5.303,2.196
	l-10.606,10.605c-1.417,1.418-3.3,2.197-5.303,2.197c-6.705,0-9.985-8.122-5.303-12.805c4.809-4.809,4.881-4.783,5.516-5.844
	c1.452-2.414,1.393-5.39,0-7.703c-0.634-1.061-0.694-1.022-5.517-5.847c-1.417-1.416-2.197-3.3-2.197-5.303
	c0-6.603,8.052-10.056,12.803-5.304l10.606,10.606c1.406,1.406,3.314,2.196,5.303,2.196h8.787c4.142,0,7.5-3.357,7.5-7.5v-8.787
	c0-1.988-0.79-3.896-2.197-5.304l-10.606-10.606c-1.417-1.416-2.197-3.3-2.197-5.303c0-6.652,8.089-10.018,12.803-5.303l4.394,4.394
	c2.929,2.929,7.678,2.929,10.606,0l4.394-4.394c4.713-4.715,12.803-1.351,12.803,5.303c0,2.003-0.78,3.887-2.197,5.303
	l-10.606,10.606c-1.407,1.407-2.197,3.313-2.197,5.304v8.787c0,4.143,3.358,7.5,7.5,7.5h8.787c1.989,0,3.897-0.79,5.303-2.196
	l10.606-10.606c4.67-4.67,12.803-1.416,12.803,5.304c0,2.003-0.78,3.887-2.197,5.303v0.001c-0.461,0.461-4.507,4.478-4.894,4.948
	c-1.61,1.97-2.081,4.576-1.374,6.919c0.67,2.221,1.604,2.861,6.268,7.527c2.931,2.93,2.931,7.675,0,10.605
	c-2.932,2.932-7.674,2.932-10.606,0l-10.606-10.606c-1.406-1.406-3.314-2.196-5.303-2.196h-8.787c-4.142,0-7.5,3.357-7.5,7.5v8.787
	c0,1.988,0.79,3.896,2.197,5.304l10.606,10.606c1.417,1.416,2.197,3.3,2.197,5.303c0,6.605-8.051,10.055-12.803,5.303
	L170.864,373.951z"/>
<path d="M479.821,386.518c3.896-8.154,2.661-18.523-4.411-25.597c-8.477-8.474-22.087-8.763-30.91-0.86
	c-8.823-7.901-22.435-7.612-30.91,0.86c-6.913,6.913-8.378,17.243-4.396,25.604c-8.362-3.983-18.69-2.518-25.604,4.396
	c-8.475,8.476-8.762,22.087-0.859,30.91c-7.901,8.823-7.614,22.435,0.859,30.91c7.073,7.071,17.44,8.308,25.597,4.411
	c-3.973,8.357-2.505,18.68,4.403,25.589c8.477,8.475,22.087,8.762,30.91,0.86c8.779,7.872,22.361,7.688,30.909-0.86
	c7.005-7.004,8.345-17.346,4.419-25.582c14.993,7.146,32.172-3.904,32.172-20.328c0-5.591-2.025-10.871-5.729-15
	c3.702-4.13,5.729-9.409,5.729-15C512,390.342,494.774,379.415,479.821,386.518L479.821,386.518z M490.41,427.134l4.394,4.396
	c2.931,2.93,2.932,7.675-0.001,10.604c-2.93,2.933-7.675,2.933-10.604,0l-10.606-10.605c-1.407-1.406-3.313-2.196-5.304-2.196H459.5
	c-4.143,0-7.5,3.357-7.5,7.5v8.787c0,1.989,0.79,3.896,2.196,5.304l10.606,10.606c4.679,4.678,1.405,12.803-5.304,12.803
	c-2.003,0-3.887-0.78-5.303-2.197l-4.395-4.394c-2.931-2.93-7.678-2.929-10.606,0l-4.395,4.394
	c-4.729,4.733-12.802,1.325-12.802-5.303c0-2.004,0.779-3.887,2.196-5.303l10.605-10.606c1.406-1.407,2.196-3.313,2.196-5.304
	v-8.787c0-4.143-3.357-7.5-7.5-7.5h-8.787c-1.989,0-3.896,0.79-5.304,2.196L404.8,442.134c-1.416,1.417-3.3,2.197-5.303,2.197
	c-6.616,0-10.04-8.067-5.303-12.803l4.394-4.395c2.929-2.93,2.929-7.678,0-10.606l-4.394-4.395
	c-4.724-4.722-1.334-12.802,5.303-12.802c2.004,0,3.887,0.778,5.303,2.196l10.606,10.605c1.407,1.406,3.313,2.196,5.304,2.196h8.787
	c4.143,0,7.5-3.356,7.5-7.5v-8.787c0-1.989-0.79-3.896-2.196-5.304l-10.605-10.606c-1.417-1.416-2.196-3.299-2.196-5.303
	c0-6.617,8.068-10.04,12.802-5.304l4.395,4.395c2.93,2.928,7.678,2.928,10.606,0l4.395-4.395c2.924-2.926,7.681-2.924,10.605,0
	c2.931,2.931,2.932,7.676-0.001,10.605l-10.605,10.605c-1.406,1.408-2.196,3.314-2.196,5.305v8.787c0,4.143,3.357,7.5,7.5,7.5h8.787
	c1.989,0,3.896-0.79,5.304-2.196l10.606-10.606c4.667-4.67,12.803-1.418,12.803,5.304c0,2.003-0.78,3.887-2.197,5.304l-4.393,4.395
	C487.481,419.457,487.481,424.205,490.41,427.134L490.41,427.134z"/>
<path fill="#7CE3FF" d="M318.285,413.337l2.082-2.083c2.777-2.777,2.777-7.279,0-10.057c-2.776-2.777-7.279-2.777-10.057,0
	l-5.027,5.027h-4.166v-4.165l5.027-5.028c2.777-2.776,2.777-7.279,0-10.057c-2.776-2.776-7.279-2.776-10.057,0l-2.082,2.084
	l-2.084-2.084c-2.776-2.776-7.279-2.776-10.057,0c-2.776,2.777-2.776,7.279,0,10.057l5.028,5.028v4.165h-4.165l-5.029-5.027
	c-2.775-2.777-7.278-2.777-10.056,0c-2.776,2.776-2.776,7.279,0,10.057l2.083,2.083l-2.083,2.083c-2.776,2.776-2.776,7.279,0,10.057
	c1.389,1.389,3.208,2.083,5.028,2.083c1.819,0,3.64-0.694,5.027-2.083l5.028-5.028h4.166v4.166l-5.028,5.027
	c-2.777,2.776-2.777,7.28,0,10.058c2.777,2.775,7.279,2.775,10.057,0l2.083-2.084l2.083,2.084c1.389,1.388,3.209,2.082,5.028,2.082
	s3.64-0.694,5.027-2.082c2.777-2.777,2.777-7.28,0-10.058l-5.026-5.028v-4.166h4.166l5.027,5.028
	c1.389,1.389,3.209,2.083,5.027,2.083c1.82,0,3.641-0.694,5.028-2.083c2.777-2.776,2.777-7.279,0-10.057L318.285,413.337z"/>
<path d="M310.75,396.596c1.848-3.865,1.262-8.781-2.091-12.135c-4.019-4.018-10.471-4.154-14.653-0.408
	c-4.184-3.746-10.636-3.608-14.654,0.408c-3.277,3.277-3.971,8.174-2.083,12.139c-3.964-1.889-8.86-1.193-12.139,2.084
	c-4.018,4.018-4.153,10.471-0.407,14.653c-3.746,4.183-3.609,10.636,0.407,14.653c3.354,3.353,8.269,3.938,12.135,2.092
	c-1.884,3.961-1.188,8.855,2.087,12.131c4.02,4.018,10.471,4.153,14.654,0.408c4.162,3.731,10.601,3.644,14.653-0.408
	c3.321-3.32,3.956-8.224,2.095-12.128c7.107,3.388,15.252-1.851,15.252-9.638c0-2.65-0.961-5.153-2.716-7.11
	c1.755-1.958,2.716-4.461,2.716-7.111C326.006,398.408,317.84,393.229,310.75,396.596L310.75,396.596z M315.771,415.851l2.083,2.084
	c1.389,1.389,1.39,3.638,0,5.027s-3.639,1.39-5.027,0l-5.029-5.028c-0.666-0.666-1.57-1.041-2.514-1.041h-4.166
	c-1.965,0-3.556,1.592-3.556,3.556v4.166c0,0.942,0.374,1.847,1.041,2.515l5.028,5.027c2.218,2.218,0.666,6.07-2.515,6.07
	c-0.949,0-1.843-0.371-2.514-1.042l-2.083-2.083c-1.39-1.389-3.641-1.389-5.028,0l-2.083,2.083
	c-2.242,2.243-6.069,0.628-6.069-2.515c0-0.949,0.369-1.842,1.041-2.514l5.028-5.027c0.666-0.668,1.041-1.571,1.041-2.515v-4.166
	c0-1.964-1.592-3.556-3.556-3.556h-4.166c-0.942,0-1.847,0.375-2.515,1.041l-5.027,5.028c-0.672,0.671-1.564,1.042-2.514,1.042
	c-3.137,0-4.76-3.825-2.515-6.07l2.083-2.083c1.389-1.389,1.389-3.64,0-5.028l-2.083-2.083c-2.239-2.239-0.632-6.069,2.515-6.069
	c0.949,0,1.842,0.369,2.514,1.041l5.027,5.028c0.668,0.667,1.571,1.041,2.515,1.041h4.166c1.964,0,3.556-1.591,3.556-3.556v-4.166
	c0-0.942-0.375-1.846-1.041-2.514l-5.028-5.028c-0.672-0.671-1.041-1.563-1.041-2.515c0-3.137,3.825-4.76,6.069-2.514l2.083,2.084
	c1.389,1.387,3.64,1.387,5.028,0l2.083-2.084c1.386-1.387,3.642-1.387,5.028,0c1.389,1.389,1.389,3.639-0.001,5.027l-5.028,5.028
	c-0.666,0.667-1.041,1.571-1.041,2.515v4.166c0,1.963,1.592,3.555,3.556,3.555h4.166c0.942,0,1.847-0.374,2.515-1.041l5.027-5.027
	c2.213-2.215,6.07-0.673,6.07,2.514c0,0.949-0.37,1.843-1.042,2.515l-2.083,2.083C314.382,412.211,314.382,414.463,315.771,415.851
	L315.771,415.851z"/>
<path fill="#7CE3FF" d="M120.34,445.334l3.157-3.159c4.211-4.211,4.211-11.037,0-15.249c-4.21-4.211-11.038-4.211-15.249,0
	l-7.623,7.623h-6.317v-6.314l7.623-7.625c4.212-4.21,4.212-11.038,0-15.249c-4.209-4.21-11.037-4.21-15.249,0l-3.156,3.159
	l-3.16-3.159c-4.21-4.21-11.038-4.21-15.249,0c-4.21,4.211-4.21,11.038,0,15.249l7.624,7.625v6.314h-6.315l-7.626-7.623
	c-4.208-4.211-11.037-4.211-15.248,0c-4.21,4.21-4.21,11.038,0,15.249l3.158,3.159l-3.158,3.158c-4.21,4.21-4.21,11.038,0,15.249
	c2.105,2.105,4.864,3.158,7.625,3.158c2.758,0,5.519-1.053,7.623-3.158l7.625-7.625h6.316v6.317l-7.624,7.623
	c-4.211,4.21-4.211,11.039,0,15.25c4.211,4.209,11.037,4.209,15.249,0l3.158-3.159l3.158,3.159c2.106,2.104,4.866,3.157,7.625,3.157
	s5.519-1.053,7.623-3.157c4.211-4.211,4.211-11.039,0-15.25l-7.622-7.624v-6.317h6.317l7.623,7.624
	c2.105,2.106,4.866,3.159,7.623,3.159c2.76,0,5.521-1.053,7.624-3.159c4.212-4.209,4.212-11.037,0-15.249L120.34,445.334z"/>
<path d="M108.914,419.949c2.802-5.861,1.913-13.315-3.17-18.4c-6.094-6.092-15.877-6.299-22.219-0.619
	c-6.344-5.68-16.127-5.471-22.221,0.619c-4.97,4.969-6.021,12.395-3.159,18.406c-6.01-2.864-13.435-1.811-18.406,3.16
	c-6.092,6.091-6.298,15.876-0.618,22.219c-5.68,6.342-5.473,16.127,0.618,22.219c5.085,5.083,12.538,5.972,18.4,3.172
	c-2.856,6.006-1.801,13.428,3.165,18.394c6.095,6.093,15.877,6.298,22.221,0.619c6.311,5.658,16.073,5.525,22.219-0.619
	c5.036-5.034,5.998-12.469,3.176-18.39c10.777,5.138,23.127-2.806,23.127-14.613c0-4.019-1.457-7.814-4.118-10.781
	c2.661-2.97,4.118-6.765,4.118-10.783C132.047,422.697,119.665,414.844,108.914,419.949L108.914,419.949z M116.527,449.146
	l3.158,3.159c2.105,2.106,2.107,5.517,0,7.623c-2.107,2.107-5.518,2.107-7.623,0l-7.626-7.624c-1.01-1.01-2.381-1.578-3.812-1.578
	h-6.317c-2.979,0-5.391,2.413-5.391,5.391v6.317c0,1.429,0.566,2.8,1.578,3.813l7.624,7.623c3.363,3.362,1.011,9.204-3.813,9.204
	c-1.439,0-2.794-0.563-3.812-1.58l-3.158-3.158c-2.107-2.106-5.521-2.106-7.625,0l-3.158,3.158c-3.4,3.401-9.203,0.952-9.203-3.813
	c0-1.438,0.56-2.792,1.578-3.811l7.625-7.623c1.01-1.014,1.578-2.383,1.578-3.813v-6.317c0-2.978-2.413-5.391-5.392-5.391h-6.316
	c-1.429,0-2.8,0.568-3.813,1.578l-7.623,7.624c-1.019,1.018-2.373,1.58-3.812,1.58c-4.756,0-7.217-5.8-3.813-9.204l3.158-3.158
	c2.106-2.106,2.106-5.52,0-7.625l-3.158-3.158c-3.396-3.396-0.958-9.203,3.813-9.203c1.439,0,2.792,0.56,3.812,1.578l7.623,7.625
	c1.013,1.012,2.382,1.578,3.813,1.578h6.316c2.979,0,5.392-2.412,5.392-5.392v-6.316c0-1.43-0.568-2.799-1.578-3.812l-7.625-7.624
	c-1.019-1.018-1.578-2.371-1.578-3.813c0-4.757,5.8-7.218,9.203-3.812l3.158,3.16c2.105,2.103,5.519,2.103,7.625,0l3.158-3.16
	c2.102-2.104,5.521-2.104,7.624,0c2.106,2.105,2.106,5.518-0.001,7.623l-7.625,7.625c-1.01,1.011-1.578,2.382-1.578,3.813v6.316
	c0,2.977,2.414,5.391,5.392,5.391h6.316c1.43,0,2.801-0.567,3.813-1.579l7.623-7.623c3.355-3.358,9.204-1.02,9.204,3.812
	c0,1.439-0.561,2.795-1.58,3.813l-3.158,3.158C114.421,443.626,114.421,447.041,116.527,449.146L116.527,449.146z"/>
</svg>
