<?xml version="1.0" encoding="utf-8"?>
<!-- Generator: Adobe Illustrator 16.0.0, SVG Export Plug-In . SVG Version: 6.00 Build 0)  -->
<!DOCTYPE svg PUBLIC "-//W3C//DTD SVG 1.1//EN" "http://www.w3.org/Graphics/SVG/1.1/DTD/svg11.dtd">
<svg version="1.1" id="Layer_1" xmlns="http://www.w3.org/2000/svg" xmlns:xlink="http://www.w3.org/1999/xlink" x="0px" y="0px"
	 width="512px" height="512px" viewBox="0 0 512 512" enable-background="new 0 0 512 512" xml:space="preserve">
<path fill="#FFB357" d="M279.863,16.69l32.407,29.308l42.719-9.178c17.86-3.837,35.725,6.477,41.332,23.863l13.411,41.585
	l41.585,13.411c17.387,5.607,27.7,23.471,23.862,41.332l-9.178,42.719l29.308,32.407c12.255,13.549,12.255,34.177,0,47.726
	l-29.308,32.406l9.178,42.72c3.837,17.86-6.477,35.725-23.862,41.331l-41.585,13.412l-13.411,41.585
	c-5.607,17.387-23.472,27.7-41.332,23.862l-42.719-9.178l-32.407,29.308c-13.549,12.255-34.177,12.255-47.726,0l-32.407-29.308
	l-42.719,9.178c-17.861,3.837-35.725-6.477-41.332-23.862l-13.411-41.585L60.683,396.32c-17.387-5.606-27.701-23.471-23.863-41.331
	l9.178-42.72L16.69,279.863c-12.254-13.549-12.254-34.177,0-47.726l29.308-32.407l-9.178-42.719
	c-3.837-17.861,6.477-35.725,23.863-41.332l41.585-13.411l13.411-41.585c5.607-17.387,23.471-27.701,41.332-23.863l42.719,9.178
	l32.407-29.308C245.686,4.437,266.314,4.437,279.863,16.69z"/>
<path fill="#FCE3A0" d="M256,443.985c-103.655,0-187.985-84.331-187.985-187.985c0-103.655,84.33-187.985,187.985-187.985
	c103.655,0,187.985,84.33,187.985,187.985C443.985,359.654,359.655,443.985,256,443.985z"/>
<path fill="#FFCE71" d="M170.015,256c0-85.986,58.032-158.669,136.985-180.952c-16.225-4.579-33.331-7.034-51-7.034
	c-103.655,0-187.985,84.33-187.985,187.985S152.345,443.985,256,443.985c17.669,0,34.775-2.455,51-7.034
	C228.047,414.669,170.015,341.986,170.015,256z"/>
<path d="M163.957,100.796c3.559-2.119,4.727-6.722,2.607-10.281s-6.723-4.725-10.281-2.607
	c-28.624,17.042-52.609,41.267-69.363,70.053C69.646,187.642,60.515,221.543,60.515,256c0,107.791,87.694,195.485,195.485,195.485
	S451.485,363.791,451.485,256S363.791,60.515,256,60.515c-0.001,0-0.002,0-0.004,0c-24.758,0-48.904,4.591-71.768,13.646
	c-3.851,1.525-5.736,5.884-4.211,9.735c1.526,3.851,5.885,5.736,9.735,4.211C210.85,79.751,233.139,75.514,256,75.515
	c99.52,0,180.485,80.965,180.485,180.485c0,99.52-80.966,180.485-180.485,180.485c-99.52,0-180.485-80.966-180.485-180.485
	C75.515,192.747,109.404,133.276,163.957,100.796L163.957,100.796z"/>
<path d="M512,256c0-10.699-3.952-20.96-11.128-28.895l-26.731-29.557c9.167-42.662,9.339-42.012,9.339-48.034
	c0-18.749-12-35.214-29.86-40.974L415.69,96.31l-12.231-37.929c-5.76-17.86-22.227-29.859-40.975-29.859
	c-6.097,0-5.765,0.256-48.034,9.337l-29.556-26.731C276.96,3.952,266.699,0,256,0c-10.422,0-20.75,3.762-28.895,11.128
	l-29.557,26.731c-42.663-9.166-42.015-9.337-48.034-9.337c-18.749,0-35.215,12-40.975,29.859L96.31,96.31l-37.929,12.231
	c-17.86,5.76-29.859,22.227-29.859,40.975c0,6.097,0.257,5.767,9.337,48.034l-26.731,29.556C3.952,235.04,0,245.301,0,256
	s3.952,20.96,11.128,28.895l26.731,29.558c-9.166,42.663-9.337,42.015-9.337,48.034c0,18.748,12,35.215,29.859,40.975l37.929,12.229
	l12.231,37.93c5.76,17.86,22.227,29.858,40.975,29.858c6.097,0,5.767-0.257,48.034-9.337l29.556,26.731
	C235.04,508.048,245.301,512,256,512s20.96-3.952,28.895-11.128l29.558-26.731c42.64,9.161,42.009,9.337,48.035,9.337
	c18.748,0,35.214-12,40.974-29.859l1.914-5.938c1.271-3.941-0.894-8.168-4.836-9.438c-3.945-1.271-8.168,0.895-9.44,4.837
	l-1.912,5.936c-3.756,11.643-14.484,19.465-26.698,19.465c-4.052,0-2.051,0.199-48.642-9.811c-2.357-0.506-4.815,0.152-6.605,1.771
	l-32.406,29.308C269.661,494.424,262.973,497,256,497c-6.973,0-13.661-2.576-18.832-7.253l-32.406-29.308
	c-1.789-1.618-4.248-2.276-6.606-1.771c-46.815,10.059-44.66,9.811-48.64,9.811c-12.214,0-22.944-7.822-26.698-19.464
	l-13.411-41.584c-0.741-2.297-2.54-4.096-4.836-4.836l-41.585-13.412c-11.642-3.754-19.463-14.482-19.463-26.697
	c0-4.053-0.2-2.051,9.81-48.641c0.507-2.357-0.152-4.816-1.77-6.605l-29.308-32.406C17.576,269.661,15,262.973,15,256
	c0-6.973,2.576-13.661,7.253-18.832l29.308-32.406c1.618-1.789,2.277-4.248,1.77-6.605c-10.058-46.815-9.81-44.66-9.81-48.64
	c0-12.214,7.822-22.944,19.463-26.698l41.585-13.411c2.296-0.741,4.095-2.54,4.836-4.836l13.411-41.585
	c3.754-11.642,14.483-19.463,26.698-19.463c4.052,0,2.05-0.2,48.64,9.81c2.358,0.506,4.816-0.151,6.606-1.77l32.407-29.308
	C242.461,17.465,249.164,15,256,15c6.973,0,13.661,2.576,18.832,7.253l32.406,29.308c1.789,1.618,4.249,2.277,6.605,1.77
	c46.816-10.058,44.661-9.81,48.641-9.81c12.215,0,22.943,7.822,26.698,19.463l13.41,41.585c0.74,2.296,2.54,4.096,4.836,4.836
	l41.585,13.411c11.643,3.754,19.465,14.483,19.465,26.698c0,4.043,0.206,2.014-9.812,48.64c-0.507,2.359,0.152,4.817,1.771,6.606
	l29.309,32.406C494.424,242.339,497,249.027,497,256c0,6.973-2.576,13.661-7.253,18.832l-29.309,32.406
	c-1.618,1.789-2.277,4.248-1.771,6.605l9.179,42.719c0.419,1.951,0.632,3.943,0.632,5.92c0,12.215-7.821,22.943-19.464,26.699
	l-41.585,13.41c-2.296,0.741-4.096,2.541-4.837,4.837l-2.288,7.097c-1.271,3.942,0.896,8.169,4.837,9.439
	c3.947,1.271,8.168-0.894,9.439-4.837l1.109-3.438l37.928-12.231c17.86-5.761,29.86-22.228,29.86-40.974
	c0-3.034-0.325-6.086-0.967-9.072l-8.372-38.962l26.731-29.556C508.048,276.96,512,266.699,512,256L512,256z"/>
</svg>
