<?xml version="1.0" encoding="utf-8"?>
<!-- Generator: Adobe Illustrator 16.0.0, SVG Export Plug-In . SVG Version: 6.00 Build 0)  -->
<!DOCTYPE svg PUBLIC "-//W3C//DTD SVG 1.1//EN" "http://www.w3.org/Graphics/SVG/1.1/DTD/svg11.dtd">
<svg version="1.1" id="Layer_1" xmlns="http://www.w3.org/2000/svg" xmlns:xlink="http://www.w3.org/1999/xlink" x="0px" y="0px"
	 width="512px" height="512px" viewBox="0 0 512 512" enable-background="new 0 0 512 512" xml:space="preserve">
<path fill="#D4D4D5" d="M303.38,51.233c-12.642-3.206-25.876-4.914-39.502-4.914c-69.776,0-129.126,44.596-151.133,106.835v0.007
	C55.395,153.921,7.5,200.771,7.5,260.015c0,59.01,47.837,106.847,106.847,106.847h227.356L303.38,51.233z"/>
<path fill="#EFEDEE" d="M424.126,204.129C424.122,129.082,372.671,66.35,303.38,48.776
	c-69.387,17.617-120.719,80.491-120.719,155.359c0,88.107,71.092,159.601,159.042,160.27h82.662
	c44.258,0,80.135-35.878,80.135-80.136C504.5,239.431,467.856,203.895,424.126,204.129z"/>
<path d="M431.472,199.356c-3.804-89.166-77.524-160.537-167.595-160.537c-69.259,0-131.477,42.802-156.421,107.029
	C48.539,149.286,0,198.217,0,260.015c0,45.752,27.16,87,69.193,105.084c3.805,1.638,8.216-0.12,9.854-3.926
	c1.637-3.806-0.121-8.217-3.926-9.854C38.599,335.606,15,299.768,15,260.015c0-64.644,61.757-113.096,125.336-95.917
	c0.655,0.177,1.313,0.262,1.961,0.262c3.305,0,6.333-2.202,7.236-5.545c1.081-3.999-1.285-8.116-5.284-9.197
	c-6.744-1.822-13.664-3.005-20.661-3.566c23.989-55.568,79.119-92.233,140.289-92.233c81.832,0,148.836,64.699,152.576,145.639
	c-1.624,0.145-3.244,0.321-4.846,0.555c-4.1,0.598-6.938,4.406-6.339,8.504c0.6,4.107,4.415,6.937,8.505,6.338
	C458.192,208.374,497,242.873,497,286.726c0,40.051-32.584,72.636-72.636,72.636H114.348c-4.153,0-8.331-0.259-12.417-0.769
	c-4.112-0.506-7.858,2.405-8.37,6.517c-0.512,4.11,2.405,7.856,6.516,8.369c4.698,0.585,9.499,0.882,14.27,0.883h310.017
	c48.321,0,87.636-39.313,87.636-87.636C512,240.733,476.469,202.902,431.472,199.356L431.472,199.356z"/>
</svg>
