<?xml version="1.0" encoding="utf-8"?>
<!-- Generator: Adobe Illustrator 16.0.0, SVG Export Plug-In . SVG Version: 6.00 Build 0)  -->
<!DOCTYPE svg PUBLIC "-//W3C//DTD SVG 1.1//EN" "http://www.w3.org/Graphics/SVG/1.1/DTD/svg11.dtd">
<svg version="1.1" id="Layer_1" xmlns="http://www.w3.org/2000/svg" xmlns:xlink="http://www.w3.org/1999/xlink" x="0px" y="0px"
	 width="512px" height="512px" viewBox="0 0 512 512" enable-background="new 0 0 512 512" xml:space="preserve">
<path fill="#D4D4D5" d="M303.38,29.233c-12.642-3.206-25.876-4.914-39.502-4.914c-69.776,0-129.126,44.596-151.133,106.835v0.007
	C55.395,131.921,7.5,178.771,7.5,238.015c0,59.01,47.837,106.847,106.847,106.847h227.356L303.38,29.233z"/>
<path fill="#EFEDEE" d="M424.126,182.129C424.122,107.082,372.671,44.35,303.38,26.776
	c-69.387,17.617-120.719,80.491-120.719,155.359c0,88.107,71.092,159.601,159.042,160.27h82.662
	c44.258,0,80.135-35.878,80.135-80.136C504.5,217.431,467.856,181.895,424.126,182.129z"/>
<path d="M431.472,177.356C427.668,88.19,353.947,16.819,263.877,16.819c-69.259,0-131.477,42.802-156.421,107.029
	C48.539,127.286,0,176.217,0,238.015c0,45.752,27.16,87,69.193,105.084c3.805,1.638,8.216-0.12,9.854-3.926
	c1.637-3.806-0.121-8.217-3.926-9.854C38.599,313.606,15,277.768,15,238.015c0-64.644,61.757-113.096,125.336-95.917
	c0.655,0.177,1.313,0.262,1.961,0.262c3.305,0,6.333-2.202,7.236-5.545c1.081-3.999-1.285-8.116-5.284-9.197
	c-6.744-1.822-13.664-3.005-20.661-3.566c23.989-55.568,79.119-92.233,140.289-92.233c81.832,0,148.836,64.699,152.576,145.639
	c-1.624,0.145-3.244,0.321-4.846,0.555c-4.1,0.598-6.938,4.406-6.339,8.504c0.6,4.107,4.415,6.937,8.505,6.338
	C458.192,186.374,497,220.873,497,264.726c0,40.051-32.584,72.636-72.636,72.636H114.348c-4.153,0-8.331-0.259-12.417-0.769
	c-4.112-0.506-7.858,2.405-8.37,6.517c-0.512,4.11,2.405,7.856,6.516,8.369c4.698,0.585,9.499,0.882,14.27,0.883h310.017
	c48.321,0,87.636-39.313,87.636-87.636C512,218.733,476.469,180.902,431.472,177.356L431.472,177.356z"/>
<g>
	<path fill="#D3DDEA" d="M465.104,408.945c-2.995-2.321-7.128-3.754-11.7-3.754h-37.322c-9.127,0-16.53-5.737-16.53-12.817
		c0-3.544-1.849-6.746-4.844-9.064c-2.996-2.32-7.134-3.753-11.701-3.753h-98.295c-9.136,0-16.541-5.738-16.541-12.818
		c0-3.542,1.85-6.744,4.845-9.063c2.995-2.32,7.133-3.754,11.696-3.754h134.933c9.137,0,16.542-5.737,16.542-12.817
		c0-7.079-7.405-12.818-16.542-12.818H129.588c-9.133,0-16.54,5.739-16.54,12.818c0,3.544,1.851,6.742,4.843,9.063
		c2.996,2.322,7.127,3.755,11.697,3.755h18.139c9.132,0,16.541,5.737,16.541,12.816c0,3.545-1.852,6.744-4.844,9.065
		c-2.995,2.321-7.127,3.753-11.697,3.753h-58.21c-9.126,0-16.534,5.739-16.534,12.817c0,3.545,1.853,6.743,4.844,9.063
		c2.995,2.322,7.127,3.754,11.69,3.754h87.794c9.137,0,16.541,5.738,16.541,12.817c0,3.536-1.848,6.738-4.844,9.059
		c-2.995,2.318-7.123,3.752-11.697,3.752H61.347c-9.136,0-16.541,5.74-16.541,12.817c0,3.538,1.849,6.745,4.844,9.066
		c2.995,2.318,7.134,3.754,11.697,3.754h263.557c9.137,0,16.541-5.741,16.541-12.82c0-3.536,1.851-6.743,4.845-9.064
		c2.991-2.318,7.134-3.753,11.695-3.753h95.42c9.137,0,16.54-5.738,16.54-12.811C469.944,414.465,468.097,411.264,465.104,408.945z
		 M292.574,429.842h-44.65c-4.567,0-8.696-1.435-11.691-3.753c-2.995-2.321-4.844-5.523-4.844-9.064
		c0-7.079,7.408-12.819,16.535-12.819h44.65c4.573,0,8.706,1.435,11.701,3.753c2.991,2.321,4.84,5.523,4.84,9.066
		C309.115,424.102,301.711,429.842,292.574,429.842z"/>
	<path fill="#D3DDEA" d="M212.292,277.014H74.447c-9.137,0-16.541,5.738-16.541,12.818c0,7.079,7.404,12.818,16.541,12.818h137.844
		c9.133,0,16.541-5.739,16.541-12.818C228.833,282.752,221.424,277.014,212.292,277.014z"/>
	<path fill="#D3DDEA" d="M360.605,277.014h-85.377c-9.137,0-16.541,5.738-16.541,12.818c0,7.079,7.404,12.818,16.541,12.818h85.377
		c9.137,0,16.542-5.739,16.542-12.818C377.147,282.752,369.742,277.014,360.605,277.014z"/>
</g>
<path d="M356.518,328.286c0,2.786,2.912,5.041,6.507,5.041h56.62c5.532,0,10.032,3.49,10.032,7.777c0,4.284-4.5,7.772-10.032,7.772
	H284.708c-12.709,0-23.05,8.015-23.05,17.859c0,9.847,10.341,17.861,23.05,17.861h98.299c5.529,0,10.032,3.49,10.032,7.773
	c0,9.85,10.336,17.861,23.046,17.861h37.323c5.532,0,10.035,3.487,10.035,7.773c0,4.285-4.503,7.774-10.035,7.774h-95.427
	c-12.705,0-23.047,8.013-23.047,17.858c0,4.288-4.499,7.774-10.031,7.774H142.475c-3.593,0-6.505,2.259-6.505,5.044
	c0,2.784,2.913,5.043,6.505,5.043h182.429c12.707,0,23.047-8.013,23.047-17.861c0-4.287,4.502-7.773,10.031-7.773h95.427
	c12.71,0,23.046-8.013,23.046-17.859c0-9.848-10.336-17.86-23.046-17.86h-37.323c-5.533,0-10.032-3.487-10.032-7.774
	c0-9.846-10.339-17.857-23.05-17.857h-98.295c-5.531,0-10.032-3.49-10.032-7.775c0-4.286,4.501-7.775,10.032-7.775h134.937
	c12.711,0,23.046-8.012,23.046-17.858s-10.335-17.858-23.046-17.858h-56.62C359.43,323.243,356.518,325.502,356.518,328.286z"/>
<path d="M61.343,461.5h55.683c3.596,0,6.507-2.256,6.507-5.04c0-2.786-2.911-5.045-6.507-5.045H61.343
	c-5.53,0-10.032-3.488-10.032-7.773c0-4.288,4.502-7.774,10.032-7.774h115.968c12.71,0,23.05-8.011,23.05-17.861
	c0-9.846-10.34-17.858-23.05-17.858H89.52c-5.532,0-10.032-3.489-10.032-7.773c0-4.286,4.503-7.774,10.032-7.774h58.207
	c12.706,0,23.046-8.014,23.046-17.861c0-9.845-10.34-17.858-23.046-17.858h-18.139c-5.532,0-10.032-3.489-10.032-7.772
	c0-4.288,4.5-7.776,10.032-7.776h207.984c3.598,0,6.51-2.257,6.51-5.042c0-2.784-2.912-5.043-6.51-5.043H129.588
	c-12.709,0-23.046,8.012-23.046,17.861c0,9.846,10.336,17.858,23.046,17.858h18.139c5.529,0,10.032,3.489,10.032,7.772
	c0,4.288-4.503,7.775-10.032,7.775H89.52c-12.706,0-23.046,8.012-23.046,17.86c0,9.847,10.34,17.858,23.046,17.858h87.791
	c5.533,0,10.036,3.49,10.036,7.773c0,4.288-4.502,7.774-10.036,7.774H61.343c-12.707,0-23.046,8.013-23.046,17.861
	C38.297,453.487,48.637,461.5,61.343,461.5z"/>
<path d="M292.574,434.884c12.709,0,23.05-8.013,23.05-17.859c0-4.773-2.396-9.258-6.749-12.631
	c-4.353-3.372-10.143-5.229-16.301-5.229H247.92c-12.704,0-23.04,8.013-23.04,17.86c0,4.771,2.4,9.256,6.75,12.63
	c4.353,3.372,10.14,5.229,16.291,5.229H292.574z M237.898,417.024c0-4.287,4.497-7.776,10.026-7.776h44.65
	c2.685,0,5.202,0.809,7.098,2.276c1.896,1.47,2.938,3.423,2.938,5.5c0,4.288-4.501,7.774-10.032,7.774h-44.654
	c-2.675,0-5.192-0.809-7.087-2.277C238.94,421.056,237.898,419.102,237.898,417.024z"/>
<path d="M74.447,307.693h137.844c12.706,0,23.047-8.013,23.047-17.861c0-9.85-10.341-17.861-23.047-17.861H74.447
	c-12.71,0-23.049,8.012-23.049,17.861C51.398,299.681,61.737,307.693,74.447,307.693z M74.447,282.056h137.844
	c5.532,0,10.032,3.488,10.032,7.776c0,4.286-4.503,7.776-10.032,7.776H74.447c-5.533,0-10.032-3.49-10.032-7.776
	C64.415,285.544,68.914,282.056,74.447,282.056z"/>
<path d="M275.229,307.693h85.377c12.711,0,23.05-8.013,23.05-17.861c0-9.85-10.339-17.861-23.05-17.861h-85.377
	c-12.71,0-23.05,8.012-23.05,17.861C252.179,299.681,262.519,307.693,275.229,307.693z M275.229,282.056h85.377
	c5.533,0,10.032,3.488,10.032,7.776c0,4.286-4.499,7.776-10.032,7.776h-85.377c-5.533,0-10.032-3.49-10.032-7.776
	C265.196,285.544,269.695,282.056,275.229,282.056z"/>
</svg>
